  0
SECTION
  2
HEADER
  0
ENDSEC
  0
SECTION
  2
TABLES
  0
TABLE
  2
LTYPE
 70
5
  0
LTYPE
  2
CONTINUOUS
 70
0
  3
CONTINUOUS
 72
65
 73
0
 40
0.0
  0
LTYPE
  2
DASHED
 70
0
  3
DASHED
 72
65
 73
2
 40
0.75
 49
0.5
 49
-0.25
  0
LTYPE
  2
DOT
 70
0
  3
DOT
 72
65
 73
2
 40
0.25
 49
0.0
 49
-0.25
  0
LTYPE
  2
CENTRE
 70
0
  3
CENTRE
 72
65
 73
4
 40
2.0
 49
1.25
 49
-0.25
 49
0.25
 49
-0.25
  0
LTYPE
  2
DASHDOT
 70
0
  3
DASHDOT
 72
65
 73
4
 40
1.0
 49
0.5
 49
-0.25
 49
0.0
 49
-0.25
  0
ENDTAB
  0
TABLE
  2
LAYER
 70
18
  0
LAYER
  2
0
 70
0
 62
7
  6
CONTINUOUS
  0
LAYER
  2
BLACK
 70
0
 62
250
  6
CONTINUOUS
  0
LAYER
  2
DARK_BLUE
 70
0
 62
172
  6
CONTINUOUS
  0
LAYER
  2
DARK_GREEN
 70
0
 62
92
  6
CONTINUOUS
  0
LAYER
  2
DARK_CYAN
 70
0
 62
132
  6
CONTINUOUS
  0
LAYER
  2
DARK_RED
 70
0
 62
12
  6
CONTINUOUS
  0
LAYER
  2
DARK_MAGENTA
 70
0
 62
212
  6
CONTINUOUS
  0
LAYER
  2
BROWN
 70
0
 62
32
  6
CONTINUOUS
  0
LAYER
  2
LIGHT_GREY
 70
0
 62
9
  6
CONTINUOUS
  0
LAYER
  2
DARK_GREY
 70
0
 62
8
  6
CONTINUOUS
  0
LAYER
  2
BLUE
 70
0
 62
5
  6
CONTINUOUS
  0
LAYER
  2
GREEN
 70
0
 62
3
  6
CONTINUOUS
  0
LAYER
  2
CYAN
 70
0
 62
4
  6
CONTINUOUS
  0
LAYER
  2
RED
 70
0
 62
1
  6
CONTINUOUS
  0
LAYER
  2
MAGENTA
 70
0
 62
6
  6
CONTINUOUS
  0
LAYER
  2
YELLOW
 70
0
 62
2
  6
CONTINUOUS
  0
LAYER
  2
WHITE
 70
0
 62
7
  6
CONTINUOUS
  0
LAYER
  2
SHEET
 70
0
 62
3
  6
CONTINUOUS
  0
ENDTAB
  0
ENDSEC
  0
SECTION
  2
BLOCKS
  0
ENDSEC
  0
SECTION
  2
ENTITIES
  0
ARC
  8
CYAN
 10
-207.3241598573
 20
102.3879600508
 40
4.7764110298
 50
240.9504745931
 51
338.2721420981
  0
ARC
  8
CYAN
 10
-201.3821163691
 20
109.882000862
 40
9.3837333724
 50
260.7709198973
 51
305.9388628131
  0
LINE
  8
CYAN
 10
-195.8746
 20
102.28452
 11
-195.85097
 21
110.52284
  0
ARC
  8
CYAN
 10
-198.1521495984
 20
112.2150694365
 40
2.8564082359
 50
323.6701744683
 51
107.2835371978
  0
ARC
  8
CYAN
 10
-192.4322841186
 20
104.3443655998
 40
12.4685894262
 50
121.7897839709
 51
151.9972091762
  0
LINE
  8
CYAN
 10
-203.44111
 20
110.19855
 11
-208.18492
 21
107.16671
  0
ARC
  8
CYAN
 10
-203.512905561
 20
100.9765377565
 40
7.7553820875
 50
127.0435735506
 51
173.3915905419
  0
ARC
  8
CYAN
 10
-206.2799491984
 20
101.8264181369
 40
4.9369948721
 50
179.5052342063
 51
227.0563323863
  0
LINE
  8
CYAN
 10
-195.73488
 20
132.6826
 11
-210.49387
 21
123.39739
  0
LINE
  8
CYAN
 10
-210.49387
 20
123.39739
 11
-208.75176
 21
120.75182
  0
LINE
  8
CYAN
 10
-208.75176
 20
120.75182
 11
-193.90008
 21
130.0956
  0
LINE
  8
CYAN
 10
-193.90008
 20
130.0956
 11
-187.05882
 21
118.34269
  0
ARC
  8
CYAN
 10
-197.1378390176
 20
113.4778555205
 40
11.1916593439
 50
358.9751453516
 51
25.765183633
  0
ARC
  8
CYAN
 10
-181.848418819
 20
108.3647554414
 40
6.3986832711
 50
129.8430430366
 51
205.665604994
  0
ARC
  8
CYAN
 10
-204.8504399861
 20
99.1295587845
 40
18.4069013029
 50
339.2603563412
 51
20.5584277734
  0
ARC
  8
CYAN
 10
-203.3288557476
 20
98.2206837893
 40
16.6649692844
 50
294.1047124815
 51
340.3301917761
  0
ARC
  8
CYAN
 10
-189.5691268655
 20
65.9186332455
 40
18.4507535597
 50
112.1403654184
 51
156.9256846538
  0
ARC
  8
CYAN
 10
-218.7769873199
 20
79.9559307137
 40
13.9990398096
 50
238.9138985932
 51
330.9104807847
  0
ARC
  8
CYAN
 10
-213.0089199499
 20
88.1720898717
 40
24.0236247561
 50
165.3896721375
 51
237.2501067736
  0
ARC
  8
CYAN
 10
-243.8512175432
 20
105.9878261939
 40
13.9961971805
 50
302.8665149041
 51
13.8624903574
  0
ARC
  8
CYAN
 10
-249.6262036527
 20
103.6331866878
 40
20.187312312
 50
16.4245818648
 51
40.8600442435
  0
ARC
  8
CYAN
 10
-223.6107609558
 20
122.8489359559
 40
12.3133166382
 50
169.0249683547
 51
209.2094115088
  0
ARC
  8
CYAN
 10
-223.186654043
 20
122.7262423239
 40
12.7530871155
 50
135.6018855102
 51
168.8465737318
  0
ARC
  8
CYAN
 10
-219.8506829486
 20
118.1498833915
 40
18.3622888054
 50
98.6912000407
 51
132.6806139148
  0
ARC
  8
CYAN
 10
-219.3996321207
 20
117.0471201375
 40
19.5225440515
 50
73.0724051783
 51
99.5107385074
  0
ARC
  8
CYAN
 10
-212.7161654181
 20
145.2580514778
 40
9.5864497932
 50
264.0170208163
 51
311.7361763885
  0
ARC
  8
CYAN
 10
-202.5816886527
 20
136.1648007421
 40
4.2243975381
 50
85.0260291129
 51
152.6671609935
  0
ARC
  8
CYAN
 10
-202.4157355675
 20
136.3828024068
 40
3.9955121772
 50
46.1173094049
 51
87.1262632687
  0
LINE
  8
CYAN
 10
-199.64611
 20
139.26261
 11
-198.76798
 21
138.15163
  0
ARC
  8
CYAN
 10
-177.0730405955
 20
146.6079610738
 40
23.2847574819
 50
201.2950197435
 51
216.7300958656
  0
ARC
  8
CYAN
 10
-130.4759708329
 20
108.7049651019
 40
2.9268749723
 50
303.4955464746
 51
37.2026759278
  0
ARC
  8
CYAN
 10
-123.5664272925
 20
116.4705756507
 40
7.5439828366
 50
191.1689164339
 51
232.635844757
  0
ARC
  8
CYAN
 10
-135.1958330824
 20
114.315345403
 40
4.2848694333
 50
9.3202347516
 51
50.0885795874
  0
ARC
  8
CYAN
 10
-135.0312520414
 20
114.3869974784
 40
4.1250950203
 50
51.2035326518
 51
93.6357827653
  0
ARC
  8
CYAN
 10
-133.3353120993
 20
107.4659191756
 40
11.2101073955
 50
100.0566435734
 51
122.8248161596
  0
LINE
  8
CYAN
 10
-139.412
 20
116.88613
 11
-142.329
 21
117.25431
  0
ARC
  8
CYAN
 10
-142.8371424047
 20
112.4557195121
 40
4.8254201241
 50
83.9552424356
 51
118.9832690364
  0
ARC
  8
CYAN
 10
-142.9846695952
 20
112.7417309392
 40
4.5037535913
 50
119.1045964071
 51
194.2581007927
  0
ARC
  8
CYAN
 10
-142.9796953373
 20
112.6150144052
 40
4.4790833782
 50
192.6712183611
 51
268.2584450622
  0
LINE
  8
CYAN
 10
-143.11582
 20
108.138
 11
-138.04784
 21
108.7155
  0
ARC
  8
CYAN
 10
-138.4226727283
 20
100.4059140954
 40
8.3180356744
 50
56.9111232246
 51
87.4172257364
  0
ARC
  8
CYAN
 10
-130.7500848016
 20
109.6266210623
 40
3.8569264365
 50
215.717847325
 51
299.3317349229
  0
LINE
  8
CYAN
 10
-117.41093
 20
95.11177
 11
-116.73608
 21
109.31666
  0
ARC
  8
CYAN
 10
-119.934659319
 20
110.2295182894
 40
3.3262922175
 50
344.0715228195
 51
59.3459763143
  0
ARC
  8
CYAN
 10
-112.2654389448
 20
125.2071090328
 40
13.5085315113
 50
211.2307230935
 51
243.7564771258
  0
ARC
  8
CYAN
 10
-143.8309503023
 20
115.4817902222
 40
20.1987107012
 50
7.7429143113
 51
99.6341102537
  0
ARC
  8
CYAN
 10
-138.3935381255
 20
177.7802827888
 40
43.2921709921
 50
243.8668062972
 51
258.2477176722
  0
ARC
  8
CYAN
 10
-163.5201131966
 20
129.9571238715
 40
10.8130619422
 50
55.9261741177
 51
91.3732872282
  0
ARC
  8
CYAN
 10
-163.9143794882
 20
126.876140228
 40
13.8915969214
 50
89.4426919723
 51
138.5738113779
  0
ARC
  8
CYAN
 10
-160.6983696875
 20
124.9019909193
 40
17.6211002847
 50
140.6801594913
 51
181.7681479902
  0
ARC
  8
CYAN
 10
-149.3272224548
 20
122.9739491266
 40
29.0168984878
 50
177.2654896695
 51
212.8440727449
  0
ARC
  8
CYAN
 10
-187.0540468314
 20
68.4096485234
 40
41.0572911541
 50
59.0023954213
 51
71.027537878
  0
LINE
  8
CYAN
 10
-165.90945
 20
103.6035
 11
-162.52995
 21
100.57153
  0
ARC
  8
CYAN
 10
-175.4612710847
 20
89.4334922745
 40
17.0667791153
 50
10.254416482
 51
40.7390604678
  0
LINE
  8
CYAN
 10
-158.6671
 20
92.47171
 11
-158.43429
 21
87.93708
  0
ARC
  8
CYAN
 10
-151.6858603361
 20
86.2315282087
 40
6.9606184957
 50
165.8164660234
 51
198.8722706229
  0
ARC
  8
CYAN
 10
-146.6353550149
 20
87.2251724208
 40
12.0809385138
 50
195.5818734201
 51
231.0865192911
  0
ARC
  8
CYAN
 10
-146.7369851827
 20
87.1568219726
 40
11.9639713442
 50
231.2596136277
 51
267.064456064
  0
ARC
  8
CYAN
 10
-147.0529732104
 20
97.8512493167
 40
22.6446433666
 50
269.2492217255
 51
294.7804360643
  0
LINE
  8
CYAN
 10
-137.56165
 20
77.29171
 11
-133.02716
 21
80.02292
  0
ARC
  8
CYAN
 10
-128.6781487882
 20
76.0676154111
 40
5.8786335922
 50
97.4299684131
 51
137.7143536177
  0
ARC
  8
CYAN
 10
-126.6451854824
 20
70.8827103618
 40
11.3628282246
 50
68.2179933858
 51
104.2300074691
  0
ARC
  8
CYAN
 10
-122.6812067076
 20
86.7523061838
 40
5.3240369834
 50
272.7183177802
 51
326.5551758908
  0
LINE
  8
CYAN
 10
-118.23874
 20
83.81805
 11
-117.38437
 21
86.15455
  0
LINE
  8
CYAN
 10
-117.38437
 20
86.15455
 11
-117.36216
 21
91.97984
  0
LINE
  8
CYAN
 10
-117.36216
 20
91.97984
 11
-134.25532
 21
92.83369
  0
LINE
  8
CYAN
 10
-134.25532
 20
92.83369
 11
-134.15605
 21
96.01
  0
LINE
  8
CYAN
 10
-134.15605
 20
96.01
 11
-117.41093
 21
95.11177
  0
LINE
  8
CYAN
 10
-91.0665
 20
92.57506
 11
-80.1961
 21
98.37234
  0
LINE
  8
CYAN
 10
-80.1961
 20
98.37234
 11
-81.69826
 21
101.14447
  0
LINE
  8
CYAN
 10
-81.69826
 20
101.14447
 11
-91.28724
 21
95.9471
  0
LINE
  8
CYAN
 10
-91.28724
 20
95.9471
 11
-91.34218
 21
96.80939
  0
ARC
  8
CYAN
 10
-88.2600086218
 20
105.510645231
 40
9.2310141913
 50
141.7421770327
 51
250.4947617446
  0
LINE
  8
CYAN
 10
-95.5085
 20
111.2265
 11
-95.581
 21
112.16598
  0
LINE
  8
CYAN
 10
-95.581
 20
112.16598
 11
-84.19884
 21
111.56508
  0
LINE
  8
CYAN
 10
-84.19884
 20
111.56508
 11
-84.09519
 21
114.6885
  0
LINE
  8
CYAN
 10
-84.09519
 20
114.6885
 11
-95.82048
 21
115.26854
  0
LINE
  8
CYAN
 10
-95.82048
 20
115.26854
 11
-95.97116
 21
117.21963
  0
ARC
  8
CYAN
 10
-96.0397599972
 20
120.7265004181
 40
3.5075413168
 50
88.1082236478
 51
271.1206542067
  0
ARC
  8
CYAN
 10
-93.4259589232
 20
129.9056203311
 40
6.1990766955
 50
246.2363323407
 51
327.9477784465
  0
ARC
  8
CYAN
 10
-84.0715478585
 20
125.3112718614
 40
4.3028178548
 50
99.6416871004
 51
162.35102122
  0
ARC
  8
CYAN
 10
-89.3471379807
 20
187.8730041535
 40
58.4972998955
 50
274.465891462
 51
289.1382048197
  0
ARC
  8
CYAN
 10
-85.1262260809
 20
175.7459469412
 40
45.656683256
 50
289.1234044596
 51
304.283163608
  0
ARC
  8
CYAN
 10
-55.5164900003
 20
133.2209599999
 40
6.1800774135
 50
86.3893196748
 51
129.0339033001
  0
ARC
  8
CYAN
 10
-55.4845129473
 20
132.6019927541
 40
6.7961719828
 50
6.8955554904
 51
86.9870092211
  0
LINE
  8
CYAN
 10
-48.7375
 20
133.41794
 11
-64.57397
 21
127.17655
  0
LINE
  8
CYAN
 10
-64.57397
 20
127.17655
 11
-63.38821
 21
124.19939
  0
LINE
  8
CYAN
 10
-63.38821
 20
124.19939
 11
-47.29075
 21
130.61103
  0
LINE
  8
CYAN
 10
-47.29075
 20
130.61103
 11
-46.91273
 21
129.8776
  0
LINE
  8
CYAN
 10
-46.91273
 20
129.8776
 11
-45.08579
 21
127.97997
  0
ARC
  8
CYAN
 10
-47.892337618
 20
118.8096284983
 40
9.5901967024
 50
42.5579537821
 51
72.9834720466
  0
ARC
  8
CYAN
 10
-46.6440900273
 20
120.178540211
 40
7.7466400036
 50
333.3991583538
 51
41.3441646106
  0
LINE
  8
CYAN
 10
-39.71745
 20
116.70981
 11
-39.40718
 21
116.06281
  0
LINE
  8
CYAN
 10
-39.40718
 20
116.06281
 11
-56.01347
 21
112.34784
  0
LINE
  8
CYAN
 10
-56.01347
 20
112.34784
 11
-55.35007
 21
109.38266
  0
LINE
  8
CYAN
 10
-55.35007
 20
109.38266
 11
-37.9896
 21
113.26669
  0
ARC
  8
CYAN
 10
-44.2773296273
 20
107.706346488
 40
8.3936263819
 50
330.6270763727
 51
41.4868623001
  0
ARC
  8
CYAN
 10
-34.0850809311
 20
96.8995487886
 40
7.2824603102
 50
113.2752856303
 51
171.6314339531
  0
LINE
  8
CYAN
 10
-41.29
 20
97.95944
 11
-58.13521
 21
97.99363
  0
LINE
  8
CYAN
 10
-58.13521
 20
97.99363
 11
-58.15834
 21
94.79158
  0
LINE
  8
CYAN
 10
-58.15834
 20
94.79158
 11
-41.58129
 21
94.92516
  0
LINE
  8
CYAN
 10
-41.58129
 20
94.92516
 11
-41.65913
 21
94.14887
  0
ARC
  8
CYAN
 10
-46.8476971005
 20
91.8795558322
 40
5.6631277002
 50
283.5077641435
 51
23.6230382526
  0
ARC
  8
CYAN
 10
-55.46950403
 20
30.7405599221
 40
56.5143525287
 50
79.8651429096
 51
99.576246982
  0
ARC
  8
CYAN
 10
-58.716802004
 20
45.053151815
 40
41.8690351979
 50
98.4526690041
 51
110.2390765133
  0
ARC
  8
CYAN
 10
-77.4885647389
 20
101.3795696581
 40
17.5735745555
 50
264.1319797535
 51
284.1217781479
  0
ARC
  8
CYAN
 10
-83.2576415716
 20
80.690379973
 40
5.1058117582
 50
38.9207503593
 51
143.0499238302
  0
ARC
  8
CYAN
 10
-89.0413480065
 20
86.6799694721
 40
3.3808385202
 50
210.0812485865
 51
300.2533261755
  0
ARC
  8
CYAN
 10
-89.0525998669
 20
86.5870786271
 40
3.3253826815
 50
162.2856192953
 51
208.7933801075
  0
ARC
  8
CYAN
 10
-98.3133396809
 20
91.6335213761
 40
7.3077479665
 50
326.4886695848
 51
7.4026317261
  0
LINE
  8
CYAN
 10
133.37894
 20
55.52521
 11
126.90084
 21
64.47797
  0
ARC
  8
CYAN
 10
129.6515306586
 20
68.065311619
 40
4.5205441034
 50
83.2079268255
 51
232.5198430978
  0
ARC
  8
CYAN
 10
136.1644571921
 20
97.8059800343
 40
25.9498741321
 50
256.6806340235
 51
281.919632023
  0
ARC
  8
CYAN
 10
138.8045759231
 20
87.7743522842
 40
15.5976384296
 50
280.041229103
 51
302.1369577121
  0
ARC
  8
CYAN
 10
149.4018733409
 20
70.8026106834
 40
4.4111899743
 50
81.6912836654
 51
121.4295395415
  0
ARC
  8
CYAN
 10
149.3288482502
 20
70.6687015952
 40
4.5545534572
 50
14.2649275785
 51
81.0256938996
  0
ARC
  8
CYAN
 10
157.0235684194
 20
72.9985614296
 40
3.4957979133
 50
200.2087096783
 51
255.5316463542
  0
ARC
  8
CYAN
 10
157.0745241742
 20
76.5756890762
 40
7.0231556801
 50
262.4369780715
 51
295.5845351787
  0
ARC
  8
CYAN
 10
151.0116071796
 20
99.2663472228
 40
30.4170232631
 50
287.3997672369
 51
341.7145593131
  0
ARC
  8
CYAN
 10
145.2016003022
 20
100.6850228544
 40
36.3818784904
 50
342.4639805919
 51
5.4493877029
  0
ARC
  8
CYAN
 10
152.0477075079
 20
101.8425572701
 40
29.4610653318
 50
4.4727558527
 51
33.3698697838
  0
ARC
  8
CYAN
 10
152.5883980203
 20
102.0920210883
 40
28.8724364425
 50
33.5466162492
 51
88.8547557893
  0
ARC
  8
CYAN
 10
152.4474522173
 20
101.981433226
 40
28.9861511706
 50
88.5805774382
 51
202.4161206388
  0
ARC
  8
CYAN
 10
124.4601059826
 20
89.5419957172
 40
1.8278018052
 50
224.3421061066
 51
49.31995215
  0
ARC
  8
CYAN
 10
153.4630001378
 20
105.4058290649
 40
34.8213779302
 50
167.2788596139
 51
209.4895879181
  0
ARC
  8
CYAN
 10
154.0762202279
 20
105.6273101669
 40
35.3725163405
 50
84.5706124842
 51
167.8475410381
  0
ARC
  8
CYAN
 10
148.6930387543
 20
97.3202614376
 40
44.3878417315
 50
3.1604308473
 51
78.65726286
  0
ARC
  8
CYAN
 10
147.5235165744
 20
98.4431050821
 40
45.5091271521
 50
288.6133290252
 51
1.6675795156
  0
ARC
  8
CYAN
 10
161.7403281527
 20
49.6722486888
 40
5.6505644956
 50
86.8674432825
 51
163.8668903325
  0
ARC
  8
CYAN
 10
153.6756781343
 20
49.7399960233
 40
3.0346086561
 50
280.05747527
 51
29.6750240964
  0
ARC
  8
CYAN
 10
149.0356958425
 20
25.4804409808
 40
21.8908266898
 50
76.3394599867
 51
95.7346806406
  0
ARC
  8
CYAN
 10
148.77826367
 20
36.2116017069
 40
11.2173782971
 50
99.9069993368
 51
129.9780793072
  0
ARC
  8
CYAN
 10
178.5147446531
 20
79.2974870667
 40
50.5410389911
 50
211.1912316741
 51
223.0328878715
  0
LINE
  8
CYAN
 10
135.27974
 20
53.12248
 11
143.25429
 21
59.59579
  0
LINE
  8
CYAN
 10
143.25429
 20
59.59579
 11
141.3229
 21
61.97529
  0
LINE
  8
CYAN
 10
141.3229
 20
61.97529
 11
133.37894
 21
55.52521
  0
LINE
  8
CYAN
 10
23.66499
 20
74.10671
 11
17.59441
 21
65.9866
  0
LINE
  8
CYAN
 10
17.59441
 20
65.9866
 11
28.19682
 21
58.89358
  0
LINE
  8
CYAN
 10
28.19682
 20
58.89358
 11
29.56097
 21
58.31618
  0
ARC
  8
CYAN
 10
30.590314525
 20
62.830148982
 40
4.6298451509
 50
257.1541915058
 51
303.9128530131
  0
ARC
  8
CYAN
 10
30.5857639526
 20
62.698046506
 40
4.5234175328
 50
304.8943070844
 51
352.5454533469
  0
LINE
  8
CYAN
 10
35.07095
 20
62.11118
 11
35.04729
 21
63.61387
  0
LINE
  8
CYAN
 10
35.04729
 20
63.61387
 11
34.05158
 21
66.57803
  0
ARC
  8
CYAN
 10
52.2939810767
 20
70.9192953207
 40
18.751847419
 50
143.7346296084
 51
193.38606698
  0
ARC
  8
CYAN
 10
33.9122485716
 20
83.4453922206
 40
3.5635908133
 50
336.2733986563
 51
89.2285263493
  0
ARC
  8
CYAN
 10
35.6635782975
 20
90.9933819555
 40
4.3335210263
 50
195.2302760437
 51
246.8547551389
  0
LINE
  8
CYAN
 10
31.48226
 20
89.85497
 11
31.34376
 21
91.38416
  0
LINE
  8
CYAN
 10
31.34376
 20
91.38416
 11
32.7786
 21
95.89526
  0
ARC
  8
CYAN
 10
62.4814565007
 20
83.4969861151
 40
32.1865947193
 50
118.6340385185
 51
157.3438475648
  0
ARC
  8
CYAN
 10
62.3827438458
 20
83.6500809208
 40
32.0049219768
 50
44.3707625116
 51
118.6102736184
  0
ARC
  8
CYAN
 10
64.3615402484
 20
85.759877176
 40
29.1153076591
 50
325.9264692956
 51
44.1260048579
  0
ARC
  8
CYAN
 10
64.3587084605
 20
85.9116788351
 40
29.2029650483
 50
288.5435656758
 51
325.6828808466
  0
ARC
  8
CYAN
 10
63.6634306549
 20
90.94589998
 40
34.2099034445
 50
249.5423892262
 51
286.9659594526
  0
LINE
  8
CYAN
 10
51.70658
 20
58.89358
 11
51.17623
 21
58.87005
  0
LINE
  8
CYAN
 10
51.17623
 20
58.87005
 11
49.85623
 21
57.73868
  0
LINE
  8
CYAN
 10
49.85623
 20
57.73868
 11
49.97124
 21
56.78977
  0
LINE
  8
CYAN
 10
49.97124
 20
56.78977
 11
50.50455
 21
56.16521
  0
LINE
  8
CYAN
 10
50.50455
 20
56.16521
 11
53.30358
 21
54.77455
  0
ARC
  8
CYAN
 10
66.2625627727
 20
86.150021881
 40
33.9463616645
 50
247.5579506077
 51
263.2649635594
  0
ARC
  8
CYAN
 10
68.3637108757
 20
87.0505994642
 40
35.1430232803
 50
260.0334579345
 51
283.1760362053
  0
ARC
  8
CYAN
 10
68.3745471243
 20
86.1107854276
 40
34.2260864478
 50
283.5169957385
 51
331.0862107986
  0
ARC
  8
CYAN
 10
68.1802205889
 20
86.2089363542
 40
34.4436460596
 50
331.0995838815
 51
18.3096167519
  0
ARC
  8
CYAN
 10
59.6312553065
 20
82.685723697
 40
43.671599428
 50
19.1744591273
 51
61.0143047002
  0
ARC
  8
CYAN
 10
59.451012199
 20
82.6636882082
 40
43.7784657581
 50
60.8219316888
 51
145.0498246967
  0
ARC
  8
CYAN
 10
59.5999880425
 20
82.5097676267
 40
43.9887683654
 50
144.9966585982
 51
165.9520770693
  0
ARC
  8
CYAN
 10
13.1527508498
 20
93.3438909342
 40
3.7772859431
 50
277.7940692883
 51
357.6242206214
  0
ARC
  8
CYAN
 10
13.1918842041
 20
85.5623223577
 40
4.0667916817
 50
83.3192889772
 51
155.248825539
  0
ARC
  8
CYAN
 10
14.9317396853
 20
85.3781406764
 40
5.7513708791
 50
160.8482512025
 51
195.2848067984
  0
LINE
  8
CYAN
 10
9.38381
 20
83.86198
 11
9.38381
 21
82.40618
  0
LINE
  8
CYAN
 10
9.38381
 20
82.40618
 11
7.94897
 21
75.67068
  0
LINE
  8
CYAN
 10
7.94897
 20
75.67068
 11
7.90479
 21
74.21218
  0
ARC
  8
CYAN
 10
17.6441958219
 20
78.8942934883
 40
10.8063968316
 50
205.675414843
 51
254.6073084878
  0
LINE
  8
CYAN
 10
14.77582
 20
68.47553
 11
15.32381
 21
67.92621
  0
LINE
  8
CYAN
 10
15.32381
 20
67.92621
 11
21.27863
 21
75.89066
  0
LINE
  8
CYAN
 10
21.27863
 20
75.89066
 11
23.66499
 21
74.10671
  0
LINE
  8
CYAN
 10
-38.29851
 20
74.60795
 11
-36.20281
 21
59.82121
  0
LINE
  8
CYAN
 10
-36.20281
 20
59.82121
 11
-39.14047
 21
59.55319
  0
LINE
  8
CYAN
 10
-39.14047
 20
59.55319
 11
-41.16295
 21
74.25115
  0
LINE
  8
CYAN
 10
-41.16295
 20
74.25115
 11
-42.19466
 21
74.1276
  0
ARC
  8
CYAN
 10
-44.6392293618
 20
67.7220303442
 40
6.8561827557
 50
69.1115530146
 51
167.5660715655
  0
ARC
  8
CYAN
 10
-59.623465069
 20
77.6345702169
 40
11.8269444156
 50
230.5433497955
 51
314.4949071864
  0
ARC
  8
CYAN
 10
-71.277755338
 20
62.8701017242
 40
6.9895966334
 50
53.695910884
 51
166.8976681601
  0
LINE
  8
CYAN
 10
-78.08539
 20
64.45458
 11
-78.2004
 21
61.6996
  0
LINE
  8
CYAN
 10
-78.2004
 20
61.6996
 11
-76.42074
 21
57.23576
  0
ARC
  8
CYAN
 10
-108.9220607366
 20
44.6347155957
 40
34.8586025208
 50
353.8068133698
 51
21.1917446716
  0
LINE
  8
CYAN
 10
-74.2669
 20
40.87413
 11
-74.96224
 21
35.80615
  0
ARC
  8
CYAN
 10
-68.3694716129
 20
36.1666145417
 40
6.6026153675
 50
183.1295735188
 51
215.973559892
  0
ARC
  8
CYAN
 10
-68.2318077226
 20
36.3862290063
 40
6.8437148181
 50
216.7845517988
 51
276.0689046088
  0
LINE
  8
CYAN
 10
-67.50826
 20
29.58087
 11
-69.04326
 21
46.43021
  0
LINE
  8
CYAN
 10
-69.04326
 20
46.43021
 11
-65.888
 21
46.60874
  0
LINE
  8
CYAN
 10
-65.888
 20
46.60874
 11
-64.48959
 21
30.20018
  0
LINE
  8
CYAN
 10
-64.48959
 20
30.20018
 11
-55.86913
 21
31.75781
  0
LINE
  8
CYAN
 10
-55.86913
 20
31.75781
 11
-53.48845
 21
33.00703
  0
LINE
  8
CYAN
 10
-53.48845
 20
33.00703
 11
-51.79713
 21
35.11084
  0
LINE
  8
CYAN
 10
-51.79713
 20
35.11084
 11
-49.97045
 21
40.04019
  0
ARC
  8
CYAN
 10
-45.7595837985
 20
36.6862385691
 40
5.3833432333
 50
79.8203745691
 51
141.4627073874
  0
LINE
  8
CYAN
 10
-44.80816
 20
41.98484
 11
-42.5896
 21
40.96534
  0
ARC
  8
CYAN
 10
-35.8779603851
 20
47.4292602603
 40
9.3181742552
 50
223.9228843708
 51
247.9775160337
  0
ARC
  8
CYAN
 10
-36.4768060025
 20
46.062669906
 40
7.8268619386
 50
248.2902522702
 51
293.5040878205
  0
LINE
  8
CYAN
 10
-33.35534
 20
38.88519
 11
-30.80966
 21
40.62066
  0
LINE
  8
CYAN
 10
-30.80966
 20
40.62066
 11
-28.588
 21
43.83532
  0
ARC
  8
CYAN
 10
-24.6910941013
 20
39.8086311598
 40
5.6035790883
 50
14.3575182083
 51
134.0616191048
  0
ARC
  8
CYAN
 10
-10.325006667
 20
51.5473992269
 40
13.6742852064
 50
229.1863621525
 51
284.6969597675
  0
LINE
  8
CYAN
 10
-6.85575
 20
38.32052
 11
-8.7611
 21
54.13624
  0
LINE
  8
CYAN
 10
-8.7611
 20
54.13624
 11
-5.42807
 21
54.47914
  0
LINE
  8
CYAN
 10
-5.42807
 20
54.47914
 11
-3.60548
 21
38.72316
  0
ARC
  8
CYAN
 10
-3.217066644
 20
46.1232635215
 40
7.4102899447
 50
266.9954416079
 51
5.7614537689
  0
ARC
  8
CYAN
 10
30.0478506592
 20
63.3094857256
 40
30.6716298955
 50
165.1175272536
 51
212.4169148851
  0
ARC
  8
CYAN
 10
-9.8638787775
 20
69.1425694575
 40
10.4705413256
 50
11.2602061876
 51
120.8792527236
  0
ARC
  8
CYAN
 10
-9.6095042099
 20
68.9358260331
 40
10.7791158918
 50
121.4757101653
 51
145.1201063504
  0
ARC
  8
CYAN
 10
-24.1134214431
 20
77.8573486658
 40
6.2970550323
 50
291.4742147816
 51
334.0308577405
  0
ARC
  8
CYAN
 10
-24.2704480196
 20
77.8763893846
 40
6.3737779084
 50
212.7507294811
 51
292.7252260015
  0
ARC
  8
CYAN
 10
-34.0925101829
 20
68.3553800038
 40
7.5355866406
 50
53.6967584836
 51
123.9280654127
  0
LINE
  8
CYAN
 10
-131.38567
 20
13.57029
 11
-139.01732
 21
13.4966
  0
LINE
  8
CYAN
 10
-139.01732
 20
13.4966
 11
-138.93818
 21
10.42929
  0
LINE
  8
CYAN
 10
-138.93818
 20
10.42929
 11
-131.34822
 21
10.50166
  0
ARC
  8
CYAN
 10
-122.5308407513
 20
8.837819277
 40
8.9729896226
 50
169.3139314266
 51
199.9460290423
  0
ARC
  8
CYAN
 10
-105.6423693002
 20
20.75702916
 40
29.4222987991
 50
210.6068791847
 51
228.9902305599
  0
ARC
  8
CYAN
 10
-115.5548913377
 20
8.3514645823
 40
13.5726896757
 50
226.2012624284
 51
249.7522530905
  0
ARC
  8
CYAN
 10
-107.1393833341
 20
30.4373107328
 40
37.2070335366
 50
249.3641939005
 51
265.8430618364
  0
ARC
  8
CYAN
 10
-102.108954401
 20
61.6008500997
 40
68.7086218082
 50
263.5424001635
 51
273.8612079192
  0
ARC
  8
CYAN
 10
-99.6787326924
 20
19.781889376
 40
26.8237906664
 50
274.6972165924
 51
291.3985184522
  0
LINE
  8
CYAN
 10
-89.892
 20
-5.19281
 11
-82.64655
 21
-1.884
  0
ARC
  8
CYAN
 10
-78.8023958587
 20
-9.5892696321
 40
8.6109640091
 50
73.6382571423
 51
116.514579665
  0
LINE
  8
CYAN
 10
-76.37668
 20
-1.32703
 11
-76.12321
 21
-1.65115
  0
LINE
  8
CYAN
 10
-76.12321
 20
-1.65115
 11
-76.40018
 21
-3.201
  0
ARC
  8
CYAN
 10
-89.9479763344
 20
5.0231742738
 40
15.8486538231
 50
310.02113636
 51
328.740203694
  0
ARC
  8
CYAN
 10
-98.6947512755
 20
13.0574492048
 40
27.6685812817
 50
290.6888075895
 51
313.1946711572
  0
ARC
  8
CYAN
 10
-108.1229569955
 20
44.8587087471
 40
60.797965516
 50
271.8951907674
 51
288.4123929701
  0
LINE
  8
CYAN
 10
-106.11229
 20
-15.906
 11
-112.35863
 21
-15.23419
  0
LINE
  8
CYAN
 10
-112.35863
 20
-15.23419
 11
-116.4336
 21
-14.14687
  0
LINE
  8
CYAN
 10
-116.4336
 20
-14.14687
 11
-123.90576
 21
-11.30068
  0
ARC
  8
CYAN
 10
-119.5842633455
 20
6.2236920811
 40
18.0493476383
 50
220.0862266905
 51
256.147290804
  0
LINE
  8
CYAN
 10
-133.39339
 20
-5.399
 11
-135.52374
 21
-1.65115
  0
ARC
  8
CYAN
 10
-140.7722264507
 20
-3.3214549703
 40
5.5078606298
 50
17.6534153746
 51
53.4079952311
  0
ARC
  8
CYAN
 10
-141.4532064486
 20
-5.2933804338
 40
7.52337945
 50
58.2018096498
 51
107.871616018
  0
ARC
  8
CYAN
 10
-140.8293185177
 20
-23.5172374457
 40
25.5530570702
 50
96.5903075453
 51
112.675241185
  0
ARC
  8
CYAN
 10
-151.4180077699
 20
5.8880493927
 40
5.8738797265
 50
232.3187864001
 51
277.2157846404
  0
LINE
  8
CYAN
 10
-155.00852
 20
1.23932
 11
-154.87002
 21
22.2976
  0
ARC
  8
CYAN
 10
-152.0971960216
 20
18.8794506076
 40
4.4013972877
 50
68.3171808233
 51
129.0491786015
  0
LINE
  8
CYAN
 10
-150.47102
 20
22.96942
 11
-141.60808
 21
20.42377
  0
ARC
  8
CYAN
 10
-140.9748618031
 20
24.7878215051
 40
4.4097517872
 50
261.7440742465
 51
299.0657079639
  0
LINE
  8
CYAN
 10
-138.83255
 20
20.93342
 11
-137.37405
 21
22.53029
  0
LINE
  8
CYAN
 10
-137.37405
 20
22.53029
 11
-135.73289
 21
26.41676
  0
ARC
  8
CYAN
 10
-121.9835463627
 20
19.1371337899
 40
15.5575514852
 50
118.5367654816
 51
152.1008999728
  0
ARC
  8
CYAN
 10
-95.1611197473
 20
-24.4133286053
 40
66.6878662644
 50
106.1846823545
 51
120.9076600148
  0
ARC
  8
CYAN
 10
-105.2345762043
 20
3.9343096914
 40
36.6987189067
 50
82.2798260835
 51
103.4158776038
  0
LINE
  8
CYAN
 10
-100.30465
 20
40.30039
 11
-93.01532
 21
38.84489
  0
LINE
  8
CYAN
 10
-93.01532
 20
38.84489
 11
-87.252
 21
37.01521
  0
LINE
  8
CYAN
 10
-87.252
 20
37.01521
 11
-82.06905
 21
33.59126
  0
LINE
  8
CYAN
 10
-82.06905
 20
33.59126
 11
-77.55805
 21
29.81992
  0
ARC
  8
CYAN
 10
-79.425062688
 20
27.1230759516
 40
3.2800463714
 50
353.3070259749
 51
55.3053231677
  0
LINE
  8
CYAN
 10
-76.16737
 20
26.74079
 11
-76.44737
 21
26.27826
  0
ARC
  8
CYAN
 10
-78.7349107275
 20
29.4292199113
 40
3.8937630825
 50
247.9257079694
 51
305.9789808136
  0
LINE
  8
CYAN
 10
-80.19822
 20
25.82088
 11
-86.18574
 21
28.92879
  0
LINE
  8
CYAN
 10
-86.18574
 20
28.92879
 11
-94.60958
 21
30.89698
  0
ARC
  8
CYAN
 10
-101.5859650825
 20
-18.7199794232
 40
50.105015829
 50
81.9964033296
 51
111.3836879157
  0
ARC
  8
CYAN
 10
-110.0373861892
 20
4.0111327178
 40
25.8606191998
 50
112.3107346262
 51
138.6819032923
  0
LINE
  8
CYAN
 10
-129.46015
 20
21.08532
 11
-130.52384
 21
19.48831
  0
LINE
  8
CYAN
 10
-130.52384
 20
19.48831
 11
-130.89516
 21
18.58679
  0
ARC
  8
CYAN
 10
-120.8344797483
 20
15.0708325744
 40
10.6573563207
 50
160.7367496841
 51
188.0940697772
  0
LINE
  8
CYAN
 10
-51.90045
 20
-10.85406
 11
-45.12413
 21
-11.06916
  0
LINE
  8
CYAN
 10
-45.12413
 20
-11.06916
 11
-45.09113
 21
-7.81087
  0
LINE
  8
CYAN
 10
-45.09113
 20
-7.81087
 11
-51.89276
 21
-7.72523
  0
ARC
  8
CYAN
 10
-70.6275169306
 20
-9.5915453168
 40
18.8274865585
 50
5.6889108324
 51
54.3061731557
  0
ARC
  8
CYAN
 10
-77.9995933915
 20
-22.6623390355
 40
33.7839306169
 50
57.0869192528
 51
91.1631720383
  0
ARC
  8
CYAN
 10
-78.3738823908
 20
-24.6289207574
 40
35.7449082243
 50
90.4993402162
 51
124.6569884298
  0
LINE
  8
CYAN
 10
-98.70066
 20
4.77381
 11
-103.56232
 21
1.21166
  0
ARC
  8
CYAN
 10
-104.06273271
 20
3.4979310428
 40
2.340394873
 50
215.5612726135
 51
282.3460448284
  0
ARC
  8
CYAN
 10
-104.0674400058
 20
3.3541098378
 40
2.2558185174
 50
143.2668479018
 51
212.6579266818
  0
ARC
  8
CYAN
 10
-76.1595760984
 20
-18.6847654628
 40
37.8156921655
 50
125.897544836
 51
141.7951529394
  0
ARC
  8
CYAN
 10
-76.5845092859
 20
-18.3010561967
 40
37.2558985383
 50
93.3733300641
 51
125.7141639023
  0
ARC
  8
CYAN
 10
-76.6471246836
 20
-18.3755829443
 40
37.3266716963
 50
28.7727684047
 51
93.270651688
  0
ARC
  8
CYAN
 10
-40.6259690909
 20
7.252828253
 40
8.3433467581
 50
246.6788561292
 51
275.1252562017
  0
ARC
  8
CYAN
 10
-41.6083398119
 20
14.4229136585
 40
15.5761889327
 50
276.3683483025
 51
299.1298436843
  0
ARC
  8
CYAN
 10
-31.3000741029
 20
-4.0366793585
 40
5.5666083048
 50
42.9074883153
 51
119.3203673004
  0
LINE
  8
CYAN
 10
-27.22279
 20
-0.24684
 11
-27.037
 21
-17.58068
  0
ARC
  8
CYAN
 10
-30.6691583877
 20
-17.6243389081
 40
3.6324207704
 50
247.5239964124
 51
0.6886678507
  0
LINE
  8
CYAN
 10
-32.05782
 20
-20.98084
 11
-37.44982
 21
-18.55003
  0
ARC
  8
CYAN
 10
-39.935748585
 20
-28.4204798534
 40
10.1786846517
 50
75.8637334478
 51
115.9622396304
  0
ARC
  8
CYAN
 10
-77.242766421
 20
-1.4013177545
 40
37.3957576698
 50
272.7519142535
 51
331.4582039224
  0
ARC
  8
CYAN
 10
-77.3927458709
 20
-1.1916708878
 40
37.6126230952
 50
242.7661481403
 51
272.9647840038
  0
ARC
  8
CYAN
 10
-76.9473521839
 20
-0.89417568
 40
38.081849109
 50
225.6123091476
 51
242.3751454738
  0
LINE
  8
CYAN
 10
-103.58598
 20
-28.10834
 11
-105.43629
 21
-26.04881
  0
LINE
  8
CYAN
 10
-105.43629
 20
-26.04881
 11
-105.66613
 21
-24.47534
  0
ARC
  8
CYAN
 10
-103.2003951898
 20
-25.052396691
 40
2.5323590936
 50
117.5745457851
 51
166.8281114348
  0
LINE
  8
CYAN
 10
-104.37263
 20
-22.80769
 11
-103.3295
 21
-22.6015
  0
LINE
  8
CYAN
 10
-103.3295
 20
-22.6015
 11
-102.56647
 21
-22.80769
  0
LINE
  8
CYAN
 10
-102.56647
 20
-22.80769
 11
-98.98063
 21
-25.2385
  0
ARC
  8
CYAN
 10
-79.010330284
 20
4.5363700972
 40
35.8518585299
 50
236.1498520473
 51
266.0804171166
  0
ARC
  8
CYAN
 10
-79.4016361749
 20
4.7826607853
 40
36.0731235644
 50
266.7272375732
 51
296.4754170045
  0
ARC
  8
CYAN
 10
-70.9004116451
 20
-9.5471519335
 40
19.4944663833
 50
292.8837543593
 51
346.3308097428
  0
LINE
  8
CYAN
 10
-51.9581
 20
-14.154
 11
-51.90045
 21
-10.85406
  0
LINE
  8
CYAN
 10
-134.39775
 20
-55.57926
 11
-140.24792
 21
-55.52821
  0
LINE
  8
CYAN
 10
-140.24792
 20
-55.52821
 11
-140.25584
 21
-52.23692
  0
LINE
  8
CYAN
 10
-140.25584
 20
-52.23692
 11
-134.85163
 21
-52.23771
  0
ARC
  8
CYAN
 10
-117.4216893656
 20
-54.7403896088
 40
17.6086977299
 50
71.4858027738
 51
171.8290276394
  0
ARC
  8
CYAN
 10
-117.3158795809
 20
-54.4220661577
 40
17.2732503247
 50
47.3508558543
 51
71.4833259142
  0
ARC
  8
CYAN
 10
-101.5695024313
 20
-38.7369746633
 40
5.0232780765
 50
216.3918841012
 51
260.3313738972
  0
LINE
  8
CYAN
 10
-102.41316
 20
-43.6889
 11
-100.90931
 21
-43.19337
  0
ARC
  8
CYAN
 10
-102.248851237
 20
-41.2551130228
 40
2.3561007694
 50
304.6485876792
 51
10.8397062871
  0
ARC
  8
CYAN
 10
-114.2931902116
 20
-47.8417897502
 40
15.9869108766
 50
26.0860385506
 51
54.4329533832
  0
ARC
  8
CYAN
 10
-119.6290649284
 20
-53.2896393473
 40
23.5511849541
 50
51.5814380289
 51
143.0850260137
  0
LINE
  8
CYAN
 10
-138.45889
 20
-39.14411
 11
-140.29547
 21
-42.02434
  0
ARC
  8
CYAN
 10
-143.9703805104
 20
-41.1546606633
 40
3.7764148882
 50
298.1623524996
 51
346.6857176907
  0
LINE
  8
CYAN
 10
-142.18802
 20
-44.484
 11
-144.31068
 21
-45.06876
  0
LINE
  8
CYAN
 10
-144.31068
 20
-45.06876
 11
-145.05084
 21
-44.98966
  0
ARC
  8
CYAN
 10
-134.1081536961
 20
-6.5114665875
 40
40.0039217057
 50
241.8730379248
 51
254.1249532297
  0
ARC
  8
CYAN
 10
-154.9636976296
 20
-46.9419384944
 40
5.5242474695
 50
68.8120806261
 51
176.0330985375
  0
LINE
  8
CYAN
 10
-160.47471
 20
-46.55977
 11
-161.21708
 21
-60.06363
  0
ARC
  8
CYAN
 10
-156.821413179
 20
-60.4173872259
 40
4.4098787939
 50
175.3988309243
 51
282.3826590627
  0
LINE
  8
CYAN
 10
-155.87576
 20
-64.72468
 11
-145.76671
 21
-62.00492
  0
ARC
  8
CYAN
 10
-145.4104010642
 20
-64.332329678
 40
2.3545258263
 50
47.6240946294
 51
98.7039739857
  0
LINE
  8
CYAN
 10
-143.82347
 20
-62.59295
 11
-141.9855
 21
-65.35221
  0
ARC
  8
CYAN
 10
-119.6401760979
 20
-55.7349913176
 40
24.3270301409
 50
203.2865924334
 51
299.3971498212
  0
ARC
  8
CYAN
 10
-118.5193803736
 20
-59.5588303482
 40
20.4652220113
 50
301.9190381351
 51
324.0542294773
  0
ARC
  8
CYAN
 10
-103.8017307316
 20
-70.2793985151
 40
2.2573770197
 50
325.0578221416
 51
42.2322795484
  0
ARC
  8
CYAN
 10
-103.7176890796
 20
-70.3316911359
 40
2.2323293892
 50
44.6766229128
 51
123.4463304827
  0
ARC
  8
CYAN
 10
-115.6523859419
 20
-58.1579773914
 40
14.8627256536
 50
289.393813002
 51
316.0721117585
  0
ARC
  8
CYAN
 10
-116.7374286692
 20
-55.7126102058
 40
17.5309130731
 50
232.332071946
 51
290.084967614
  0
ARC
  8
CYAN
 10
-115.8412506424
 20
-55.1050487045
 40
18.5625576029
 50
181.4638748952
 51
231.2883849556
  0
LINE
  8
CYAN
 10
-89.12274
 20
-72.04068
 11
-81.87171
 21
-72.04068
  0
LINE
  8
CYAN
 10
-81.87171
 20
-72.04068
 11
-81.87184
 21
-75.07668
  0
LINE
  8
CYAN
 10
-81.87184
 20
-75.07668
 11
-88.99595
 21
-75.07668
  0
ARC
  8
CYAN
 10
-101.3747301776
 20
-78.4959602926
 40
12.8423392108
 50
282.0531778235
 51
15.4412758454
  0
ARC
  8
CYAN
 10
-101.4515890854
 20
-78.5112702025
 40
12.8436555057
 50
232.6300656051
 51
282.4027520585
  0
LINE
  8
CYAN
 10
-109.24716
 20
-88.71855
 11
-112.06981
 21
-85.84871
  0
ARC
  8
CYAN
 10
-113.6172643904
 20
-87.9010598602
 40
2.5703608772
 50
52.9840163253
 51
123.3672031952
  0
ARC
  8
CYAN
 10
-113.6553202123
 20
-87.66035044
 40
2.3505526025
 50
125.8203189583
 51
182.6705555108
  0
LINE
  8
CYAN
 10
-116.00332
 20
-87.76987
 11
-115.70282
 21
-88.85705
  0
ARC
  8
CYAN
 10
-98.2844623911
 20
-79.4113268058
 40
19.814662966
 50
208.4703359874
 51
225.1636457235
  0
ARC
  8
CYAN
 10
-99.4489190592
 20
-80.6509504033
 40
18.1146410144
 50
225.0108889747
 51
268.5789257951
  0
ARC
  8
CYAN
 10
-99.3746163307
 20
-80.6251268722
 40
18.1424487524
 50
268.3463639382
 51
352.5451075045
  0
ARC
  8
CYAN
 10
-78.1060300535
 20
-84.6018900336
 40
3.6590612181
 50
90.6008306938
 51
153.6714311538
  0
LINE
  8
CYAN
 10
-78.1444
 20
-80.94303
 11
-76.22337
 21
-81.45271
  0
LINE
  8
CYAN
 10
-76.22337
 20
-81.45271
 11
-73.14724
 21
-83.97487
  0
ARC
  8
CYAN
 10
-70.6789946506
 20
-80.6392923585
 40
4.1494955486
 50
233.4994701954
 51
0.2837858729
  0
LINE
  8
CYAN
 10
-66.52955
 20
-80.61874
 11
-66.32026
 21
-66.13408
  0
ARC
  8
CYAN
 10
-71.0619027663
 20
-66.1311150958
 40
4.7416436933
 50
359.9641734978
 51
109.7097755876
  0
LINE
  8
CYAN
 10
-72.66105
 20
-61.66727
 11
-75.92274
 21
-63.95674
  0
LINE
  8
CYAN
 10
-75.92274
 20
-63.95674
 11
-77.7054
 21
-64.74326
  0
ARC
  8
CYAN
 10
-78.0865495724
 20
-61.6339102365
 40
3.1326236525
 50
205.1196458279
 51
276.9885527671
  0
ARC
  8
CYAN
 10
-99.9563242103
 20
-67.1897880868
 40
19.4969412883
 50
12.5184753076
 51
118.6070249504
  0
ARC
  8
CYAN
 10
-98.819547984
 20
-66.16983759
 40
19.2033987075
 50
123.0461945697
 51
157.1283204802
  0
ARC
  8
CYAN
 10
-114.3538306695
 20
-59.5539779285
 40
2.3198069954
 50
158.5614184157
 51
237.259309701
  0
ARC
  8
CYAN
 10
-114.3140192089
 20
-59.5215699197
 40
2.3686515499
 50
236.8732710419
 51
314.7204989828
  0
ARC
  8
CYAN
 10
-100.9175569385
 20
-68.6842856915
 40
13.9116098971
 50
111.2469794607
 51
147.4757112257
  0
ARC
  8
CYAN
 10
-101.4200895148
 20
-67.8808404704
 40
12.9818746721
 50
341.310800981
 51
110.4648161617
  0
LINE
  8
CYAN
 10
-179.9485
 20
54.5954
 11
-173.09345
 21
55.99384
  0
LINE
  8
CYAN
 10
-173.09345
 20
55.99384
 11
-172.67158
 21
52.93447
  0
LINE
  8
CYAN
 10
-172.67158
 20
52.93447
 11
-179.31586
 21
51.54732
  0
ARC
  8
CYAN
 10
-188.5452592183
 20
47.7496608923
 40
9.980181593
 50
255.1914151454
 51
22.3658989022
  0
ARC
  8
CYAN
 10
-190.8072422702
 20
35.501727707
 40
2.6152436379
 50
96.3413464541
 51
174.2309288185
  0
LINE
  8
CYAN
 10
-193.40924
 20
35.76461
 11
-193.04089
 21
34.04963
  0
ARC
  8
CYAN
 10
-188.1799726379
 20
38.2084554085
 40
6.3972139544
 50
220.5491019896
 51
255.549368129
  0
ARC
  8
CYAN
 10
-184.6272021295
 20
45.2015593579
 40
14.1575213406
 50
248.6720635469
 51
324.8855041687
  0
ARC
  8
CYAN
 10
-188.3219578974
 20
47.092695852
 40
18.2768036577
 50
326.6987487318
 51
353.7741015545
  0
ARC
  8
CYAN
 10
-167.0905962266
 20
43.8205217894
 40
3.3229975057
 50
73.5865864842
 51
157.1557608867
  0
LINE
  8
CYAN
 10
-166.15163
 20
47.0081
 11
-157.91345
 21
45.45829
  0
ARC
  8
CYAN
 10
-157.3529120116
 20
49.9099273525
 40
4.4867892701
 50
262.8232427873
 51
302.0369889805
  0
ARC
  8
CYAN
 10
-157.441867085
 20
49.9545466279
 40
4.5720937398
 50
302.6853729282
 51
9.833824217
  0
LINE
  8
CYAN
 10
-152.93695
 20
50.73542
 11
-155.6211
 21
64.82837
  0
ARC
  8
CYAN
 10
-160.20363685
 20
63.8648276686
 40
4.6827404162
 50
11.8742631944
 51
95.1150388487
  0
LINE
  8
CYAN
 10
-160.62113
 20
68.52892
 11
-163.09613
 21
67.51242
  0
ARC
  8
CYAN
 10
-184.7539637298
 20
100.4982931111
 40
39.4604813297
 50
289.4907496497
 51
303.2880645214
  0
ARC
  8
CYAN
 10
-172.0214258729
 20
65.5060085091
 40
2.2491272784
 50
219.1590576764
 51
281.1163416043
  0
ARC
  8
CYAN
 10
-191.233098385
 20
52.8311171122
 40
20.7794940403
 50
32.7940968122
 51
51.2588902136
  0
ARC
  8
CYAN
 10
-186.5642874921
 20
57.4290011323
 40
14.2919226583
 50
54.324079104
 51
108.4869753894
  0
ARC
  8
CYAN
 10
-187.2662421831
 20
58.9055480881
 40
12.6705294957
 50
107.5936962215
 51
154.8266701229
  0
ARC
  8
CYAN
 10
-196.7456077389
 20
64.1072048757
 40
1.9966391424
 50
174.6013033554
 51
233.0170716428
  0
ARC
  8
CYAN
 10
-196.464818605
 20
64.5789701446
 40
2.5431047644
 50
234.3578248686
 51
317.4748312251
  0
ARC
  8
CYAN
 10
-189.790209015
 20
54.261989444
 40
9.8473549207
 50
1.9402844268
 51
119.1750994787
  0
LINE
  8
CYAN
 10
32.16368
 20
-111.33147
 11
39.49737
 21
-126.55823
  0
LINE
  8
CYAN
 10
39.49737
 20
-126.55823
 11
42.06345
 21
-125.25546
  0
LINE
  8
CYAN
 10
42.06345
 20
-125.25546
 11
34.70072
 21
-109.9689
  0
LINE
  8
CYAN
 10
34.70072
 20
-109.9689
 11
36.2045
 21
-109.16126
  0
ARC
  8
CYAN
 10
44.3362220434
 20
-114.6620585158
 40
9.8175194271
 50
106.0614321315
 51
145.9231541072
  0
LINE
  8
CYAN
 10
41.62003
 20
-105.22776
 11
43.055
 21
-105.78163
  0
ARC
  8
CYAN
 10
37.9095030289
 20
-111.0803657267
 40
7.385982628
 50
9.9082714444
 51
45.840588703
  0
LINE
  8
CYAN
 10
45.18532
 20
-109.80945
 11
45.67147
 21
-113.88145
  0
ARC
  8
CYAN
 10
57.5233787769
 20
-111.2879974966
 40
12.1323426239
 50
192.342997006
 51
219.7359932462
  0
ARC
  8
CYAN
 10
54.8846398857
 20
-116.0064899303
 40
7.348041345
 50
204.4137998747
 51
272.8535553757
  0
ARC
  8
CYAN
 10
55.733419747
 20
-119.4064301468
 40
3.968488483
 50
263.0097070806
 51
337.2476225759
  0
ARC
  8
CYAN
 10
64.9450660996
 20
-124.2060220036
 40
6.4407397947
 50
84.8364168572
 51
149.5427392458
  0
LINE
  8
CYAN
 10
65.52473
 20
-117.79142
 11
70.10642
 21
-119.20573
  0
LINE
  8
CYAN
 10
70.10642
 20
-119.20573
 11
79.06074
 21
-123.46339
  0
ARC
  8
CYAN
 10
83.0854698148
 20
-112.7826199715
 40
11.4139081161
 50
249.3525777983
 51
273.1520807532
  0
LINE
  8
CYAN
 10
83.71308
 20
-124.17926
 11
96.16187
 21
-122.88289
  0
ARC
  8
CYAN
 10
92.9555055754
 20
-108.9961129856
 40
14.2521348811
 50
283.0013683854
 51
325.01983316
  0
ARC
  8
CYAN
 10
108.3476908771
 20
-121.0661013819
 40
5.3855168298
 50
63.6155718193
 51
133.610772727
  0
LINE
  8
CYAN
 10
110.74097
 20
-116.24158
 11
115.4375
 21
-117.90926
  0
ARC
  8
CYAN
 10
117.3490830802
 20
-112.1917300194
 40
6.0286233048
 50
251.5133001438
 51
287.7648184492
  0
LINE
  8
CYAN
 10
119.18848
 20
-117.93289
 11
121.73129
 21
-115.98823
  0
ARC
  8
CYAN
 10
125.0430683986
 20
-120.1196904699
 40
5.2949826984
 50
83.9952648756
 51
128.7156603123
  0
ARC
  8
CYAN
 10
124.9321115613
 20
-126.6977004493
 40
11.8625872139
 50
61.1016605088
 51
86.7870307405
  0
ARC
  8
CYAN
 10
140.6058135685
 20
-98.4349345377
 40
20.455383528
 50
240.9229280138
 51
262.0945912333
  0
ARC
  8
CYAN
 10
138.9483292007
 20
-104.9592912768
 40
13.7851766314
 50
265.190009015
 51
288.2954880718
  0
LINE
  8
CYAN
 10
143.27574
 20
-118.04763
 11
154.31308
 21
-115.03929
  0
LINE
  8
CYAN
 10
154.31308
 20
-115.03929
 11
158.10808
 21
-115.33995
  0
ARC
  8
CYAN
 10
158.7393331827
 20
-113.1483693828
 40
2.2806810786
 50
253.9317173144
 51
308.0187908868
  0
ARC
  8
CYAN
 10
152.4810767576
 20
-106.7145351632
 40
11.2456000755
 50
312.9546819626
 51
342.7883707078
  0
ARC
  8
CYAN
 10
173.0444854535
 20
-112.2471776455
 40
10.0658949031
 50
131.1772828204
 51
167.3460975825
  0
LINE
  8
CYAN
 10
166.41719
 20
-104.67082
 11
166.92687
 21
-104.53232
  0
LINE
  8
CYAN
 10
166.92687
 20
-104.53232
 11
167.45721
 21
-104.57947
  0
LINE
  8
CYAN
 10
167.45721
 20
-104.57947
 11
168.03768
 21
-104.92726
  0
ARC
  8
CYAN
 10
156.2354732332
 20
-115.1519774332
 40
15.6152787729
 50
6.1116399607
 51
40.9036753807
  0
ARC
  8
CYAN
 10
158.9899713748
 20
-115.5132431826
 40
12.9313700984
 50
328.1926155635
 51
9.0038185792
  0
ARC
  8
CYAN
 10
156.6109362543
 20
-107.2387815721
 40
20.1600421276
 50
273.9989752097
 51
311.5379034666
  0
LINE
  8
CYAN
 10
158.01687
 20
-127.34974
 11
151.92939
 21
-127.69739
  0
LINE
  8
CYAN
 10
151.92939
 20
-127.69739
 11
140.56779
 21
-127.11692
  0
ARC
  8
CYAN
 10
141.4772637445
 20
-140.0981783236
 40
13.0130784273
 50
94.0076237173
 51
134.2281324365
  0
ARC
  8
CYAN
 10
127.3599647846
 20
-125.7019591424
 40
7.1502380386
 50
245.4998292808
 51
314.8243174822
  0
LINE
  8
CYAN
 10
124.39479
 20
-132.20839
 11
119.04697
 21
-131.21539
  0
ARC
  8
CYAN
 10
119.2779827393
 20
-136.6846728387
 40
5.4741594474
 50
92.4186337494
 51
130.2889171084
  0
ARC
  8
CYAN
 10
110.1017885138
 20
-128.4256606451
 40
6.9600651686
 50
262.8485291717
 51
324.0779489159
  0
ARC
  8
CYAN
 10
113.4799071266
 20
-101.8248593119
 40
33.77450127
 50
250.2864800823
 51
262.7802849382
  0
ARC
  8
CYAN
 10
97.9035989311
 20
-146.6808990238
 40
13.7146939347
 50
72.2392065979
 51
97.6810272499
  0
LINE
  8
CYAN
 10
96.07052
 20
-133.08926
 11
84.42908
 21
-134.08237
  0
ARC
  8
CYAN
 10
87.0296860505
 20
-152.5497146878
 40
18.6495568754
 50
98.0157897543
 51
119.1346625999
  0
ARC
  8
CYAN
 10
71.3971883332
 20
-128.5479005024
 40
10.1198007673
 50
263.1931362585
 51
310.354347523
  0
LINE
  8
CYAN
 10
70.19776
 20
-138.59637
 11
62.3071
 21
-137.32339
  0
ARC
  8
CYAN
 10
62.0119594442
 20
-143.9274661058
 40
6.61066783
 50
87.4411161618
 51
137.3749870385
  0
LINE
  8
CYAN
 10
57.14782
 20
-139.45074
 11
53.09947
 21
-144.40371
  0
ARC
  8
CYAN
 10
44.5823593224
 20
-137.1931977473
 40
11.1594202914
 50
292.1775238216
 51
319.749036657
  0
ARC
  8
CYAN
 10
45.1360753118
 20
-136.2913697801
 40
11.8163553496
 50
246.5915214244
 51
288.0370185503
  0
ARC
  8
CYAN
 10
45.3782438067
 20
-135.4504936162
 40
12.6847264637
 50
205.8439016792
 51
247.096651259
  0
ARC
  8
CYAN
 10
-44.7276880797
 20
-169.7047644587
 40
83.7687633197
 50
20.0539663882
 51
34.8843248467
  0
LINE
  8
CYAN
 10
23.98853
 20
-121.79561
 11
19.17402
 21
-115.31642
  0
LINE
  8
CYAN
 10
19.17402
 20
-115.31642
 11
15.14921
 21
-111.05876
  0
ARC
  8
CYAN
 10
20.6669789012
 20
-107.464826209
 40
6.5849930707
 50
179.2499885761
 51
213.0777358513
  0
ARC
  8
CYAN
 10
18.4901828346
 20
-107.9590774301
 40
4.4456885207
 50
91.8949095465
 51
172.4978078735
  0
ARC
  8
CYAN
 10
18.2615686978
 20
-108.6725289412
 40
5.1573547007
 50
12.6780683554
 51
89.0932990617
  0
ARC
  8
CYAN
 10
27.9698893068
 20
-107.480418385
 40
4.6770968965
 50
180.7376299427
 51
225.7204792317
  0
LINE
  8
CYAN
 10
24.70453
 20
-110.82895
 11
26.51068
 21
-111.54482
  0
LINE
  8
CYAN
 10
26.51068
 20
-111.54482
 11
30.55902
 21
-112.1931
  0
LINE
  8
CYAN
 10
30.55902
 20
-112.1931
 11
32.16368
 21
-111.33147
  0
LINE
  8
CYAN
 10
-5.15259
 20
-95.58407
 11
-4.91674
 21
-112.29355
  0
LINE
  8
CYAN
 10
-4.91674
 20
-112.29355
 11
-7.87974
 21
-112.31824
  0
LINE
  8
CYAN
 10
-7.87974
 20
-112.31824
 11
-7.99768
 21
-96.21048
  0
LINE
  8
CYAN
 10
-7.99768
 20
-96.21048
 11
-8.37342
 21
-96.29321
  0
ARC
  8
CYAN
 10
-21.126243319
 20
-130.0385865459
 40
36.074713316
 50
69.2977593763
 51
81.6252694649
  0
ARC
  8
CYAN
 10
-14.5143463533
 20
-98.4370045134
 40
4.3080042901
 50
108.3707956422
 51
184.4093319229
  0
LINE
  8
CYAN
 10
-18.8096
 20
-98.76821
 11
-17.53676
 21
-102.58674
  0
ARC
  8
CYAN
 10
-38.1778489553
 20
-109.0040594905
 40
21.6156550376
 50
355.2928563385
 51
17.2704818599
  0
ARC
  8
CYAN
 10
-34.8465364095
 20
-109.3964347493
 40
18.2637581657
 50
337.8419663478
 51
355.6620209794
  0
ARC
  8
CYAN
 10
-21.5553286716
 20
-114.3230988064
 40
4.1206511041
 50
292.3093515007
 51
331.5705986406
  0
ARC
  8
CYAN
 10
-21.6256761559
 20
-114.3925414643
 40
4.084134611
 50
204.7022105966
 51
293.5922968266
  0
ARC
  8
CYAN
 10
-30.732919086
 20
-122.5437635501
 40
8.405763123
 50
50.0558680423
 51
93.9064255321
  0
LINE
  8
CYAN
 10
-31.30558
 20
-114.15753
 11
-34.38458
 21
-114.9885
  0
ARC
  8
CYAN
 10
-49.3933118477
 20
-86.9304730137
 40
31.8200394412
 50
283.9575214919
 51
298.1431095573
  0
ARC
  8
CYAN
 10
-53.2472646607
 20
-75.7499695444
 40
43.6125025085
 50
243.5055457579
 51
285.3284144964
  0
ARC
  8
CYAN
 10
-79.4040909287
 20
-119.5093195325
 40
8.2004012856
 50
35.2013956648
 51
91.3546094938
  0
ARC
  8
CYAN
 10
-79.0400220485
 20
-116.88980092
 40
5.6064213409
 50
95.7112933662
 51
132.6570331055
  0
LINE
  8
CYAN
 10
-82.83898
 20
-112.76671
 11
-85.29045
 21
-115.63655
  0
ARC
  8
CYAN
 10
-86.3168756066
 20
-113.8849702066
 40
2.0301678006
 50
243.8502074685
 51
300.3702989703
  0
ARC
  8
CYAN
 10
-93.664803622
 20
-122.9749621754
 40
9.7191584002
 50
48.3969286198
 51
71.8563930345
  0
ARC
  8
CYAN
 10
-92.3335723085
 20
-119.8720674349
 40
6.3630171051
 50
74.5479314172
 51
142.3390200027
  0
ARC
  8
CYAN
 10
-112.3421097607
 20
-106.2628270945
 40
17.8507206731
 50
285.0203150618
 51
327.0026268257
  0
ARC
  8
CYAN
 10
-112.3142935167
 20
-105.6492885215
 40
18.4370251341
 50
265.8084692788
 51
284.442682259
  0
LINE
  8
CYAN
 10
-113.66187
 20
-124.037
 11
-119.30721
 21
-123.25018
  0
ARC
  8
CYAN
 10
-118.4782102375
 20
-128.8493049127
 40
5.6601625767
 50
98.4219600986
 51
136.6262157865
  0
ARC
  8
CYAN
 10
-128.4197320648
 20
-121.8157421332
 40
6.6224123883
 50
297.8710054852
 51
331.6330597643
  0
ARC
  8
CYAN
 10
-126.1950488011
 20
-125.8173001081
 40
2.0472758075
 50
234.514021375
 51
295.1842625101
  0
LINE
  8
CYAN
 10
-127.3835
 20
-127.48431
 11
-129.62869
 21
-124.75287
  0
LINE
  8
CYAN
 10
-129.62869
 20
-124.75287
 11
-132.637
 21
-124.6145
  0
LINE
  8
CYAN
 10
-132.637
 20
-124.6145
 11
-134.11903
 21
-123.57447
  0
LINE
  8
CYAN
 10
-134.11903
 20
-123.57447
 11
-135.39197
 21
-121.46769
  0
ARC
  8
CYAN
 10
-137.4216407187
 20
-123.5310504414
 40
2.8943081276
 50
45.4715906762
 51
197.6410825704
  0
LINE
  8
CYAN
 10
-140.17984
 20
-124.40818
 11
-136.17866
 21
-136.742
  0
ARC
  8
CYAN
 10
-132.3414916774
 20
-135.8029082367
 40
3.9504118868
 50
193.7520096449
 51
253.3884732065
  0
LINE
  8
CYAN
 10
-133.47084
 20
-139.58845
 11
-130.601
 21
-139.37913
  0
LINE
  8
CYAN
 10
-130.601
 20
-139.37913
 11
-129.35168
 21
-139.54129
  0
ARC
  8
CYAN
 10
-127.2050237858
 20
-137.5589109122
 40
2.9219787387
 50
222.7216410828
 51
300.5757547619
  0
ARC
  8
CYAN
 10
-130.1269410539
 20
-134.1250749331
 40
7.4047101923
 50
306.536304456
 51
340.4440733653
  0
LINE
  8
CYAN
 10
-123.14937
 20
-136.60363
 11
-122.73403
 21
-136.34716
  0
ARC
  8
CYAN
 10
-122.0954950936
 20
-139.6258014583
 40
3.340242003
 50
45.8735297911
 51
101.0207371483
  0
ARC
  8
CYAN
 10
-117.757445
 20
-132.15071
 40
5.461717027
 50
248.3793187961
 51
291.6206812039
  0
LINE
  8
CYAN
 10
-115.74502
 20
-137.22816
 11
-110.79205
 21
-133.77784
  0
ARC
  8
CYAN
 10
-99.2990638628
 20
-153.8534213124
 40
23.1326110801
 50
97.7418061871
 51
119.7905264856
  0
ARC
  8
CYAN
 10
-99.0990046295
 20
-154.6087499538
 40
23.9081995498
 50
80.8846122553
 51
97.9730346017
  0
ARC
  8
CYAN
 10
-87.7998783892
 20
-107.3705402696
 40
24.7970034903
 50
252.3669221654
 51
268.6294760591
  0
ARC
  8
CYAN
 10
-89.5590560582
 20
-126.3579144985
 40
5.9185450021
 50
281.3628920077
 51
331.8285281853
  0
ARC
  8
CYAN
 10
-82.3740417989
 20
-130.3532706099
 40
2.305242307
 50
68.8583833121
 51
148.5974618298
  0
ARC
  8
CYAN
 10
-75.4943201959
 20
-121.6701099591
 40
8.9029671127
 50
227.2066988154
 51
289.2111849419
  0
ARC
  8
CYAN
 10
-62.4663054355
 20
-161.3273279494
 40
32.8411976387
 50
88.1198827441
 51
107.9082964701
  0
ARC
  8
CYAN
 10
-60.5727145917
 20
-176.6095094644
 40
48.1126218537
 50
75.722446199
 51
90.9719442091
  0
ARC
  8
CYAN
 10
-61.2251142182
 20
-179.5186244387
 40
51.0928467272
 50
61.4575059491
 51
75.8179849423
  0
LINE
  8
CYAN
 10
-36.81242
 20
-134.63545
 11
-32.44002
 21
-137.3195
  0
ARC
  8
CYAN
 10
-27.8687211301
 20
-131.4479795652
 40
7.4412045782
 50
232.097296754
 51
265.8115153818
  0
ARC
  8
CYAN
 10
-28.0968648453
 20
-133.4704382426
 40
5.408073485
 50
266.6571828394
 51
310.9942363999
  0
LINE
  8
CYAN
 10
-24.54926
 20
-137.55232
 11
-21.56458
 21
-134.08147
  0
ARC
  8
CYAN
 10
-15.8320160726
 20
-140.9951710558
 40
8.9811776216
 50
70.0622939833
 51
129.6641622996
  0
LINE
  8
CYAN
 10
-12.76945
 20
-132.55229
 11
-10.91911
 21
-133.50097
  0
ARC
  8
CYAN
 10
-7.6843926845
 20
-130.2004888739
 40
4.6213171039
 50
225.5765489216
 51
268.910170242
  0
ARC
  8
CYAN
 10
-5.3749988782
 20
-122.436399944
 40
12.6144591717
 50
259.0446996177
 51
286.6737844118
  0
ARC
  8
CYAN
 10
-5.501830951
 20
-122.7275308859
 40
12.3736588976
 50
287.6232174914
 51
338.3199388623
  0
ARC
  8
CYAN
 10
-6.2158711715
 20
-122.6527488902
 40
13.0662595832
 50
339.17194043
 51
5.8138006533
  0
LINE
  8
CYAN
 10
6.78318
 20
-121.32919
 11
6.24987
 21
-118.9455
  0
LINE
  8
CYAN
 10
6.24987
 20
-118.9455
 11
5.973
 21
-108.39421
  0
ARC
  8
CYAN
 10
94.8509900892
 20
-111.2958492059
 40
88.9253430265
 50
169.0443780653
 51
178.1301034037
  0
LINE
  8
CYAN
 10
7.54634
 20
-94.39571
 11
9.14334
 21
-87.54511
  0
LINE
  8
CYAN
 10
9.14334
 20
-87.54511
 11
9.329
 21
-84.99942
  0
ARC
  8
CYAN
 10
4.8571339292
 20
-85.7624324447
 40
4.5364935959
 50
9.6828494341
 51
106.5380738281
  0
ARC
  8
CYAN
 10
4.749655163
 20
-85.6449355594
 40
4.393814443
 50
105.6306186185
 51
155.766258535
  0
ARC
  8
CYAN
 10
6.9736799517
 20
-86.3874706067
 40
6.730766654
 50
157.7736800742
 51
193.1298254737
  0
ARC
  8
CYAN
 10
-8.4992471709
 20
-87.2943361065
 40
8.9397875951
 50
291.9844741504
 51
356.0097922857
  0
LINE
  8
CYAN
 10
-225.69901
 20
40.78605
 11
-227.00571
 21
23.08155
  0
LINE
  8
CYAN
 10
-227.00571
 20
23.08155
 11
-224.00647
 21
22.99945
  0
LINE
  8
CYAN
 10
-224.00647
 20
22.99945
 11
-222.7603
 21
40.13889
  0
LINE
  8
CYAN
 10
-222.7603
 20
40.13889
 11
-221.4496
 21
39.85037
  0
LINE
  8
CYAN
 10
-221.4496
 20
39.85037
 11
-219.71413
 21
40.08018
  0
ARC
  8
CYAN
 10
-216.2727221407
 20
59.5756306198
 40
19.7968654822
 50
259.98907252
 51
276.8040068602
  0
ARC
  8
CYAN
 10
-207.9821396362
 20
24.524380046
 40
16.5019560797
 50
83.3116614015
 51
111.1168554181
  0
ARC
  8
CYAN
 10
-207.5334384137
 20
31.8350882075
 40
9.1976994094
 50
10.6390577858
 51
80.7828392891
  0
ARC
  8
CYAN
 10
-204.91578004
 20
31.7889598995
 40
6.654584074
 50
301.3362464924
 51
15.1951836201
  0
LINE
  8
CYAN
 10
-201.455
 20
26.10508
 11
-202.45084
 21
26.14927
  0
LINE
  8
CYAN
 10
-202.45084
 20
26.14927
 11
-206.2695
 21
27.86421
  0
ARC
  8
CYAN
 10
-207.8342288796
 20
25.0294501006
 40
3.237937639
 50
61.1022099769
 51
129.1577617047
  0
LINE
  8
CYAN
 10
-209.87885
 20
27.54018
 11
-210.43282
 21
25.71023
  0
ARC
  8
CYAN
 10
-225.5951817874
 20
25.253928347
 40
15.1692262878
 50
340.8352094567
 51
1.7237598528
  0
LINE
  8
CYAN
 10
-211.26666
 20
20.27408
 11
-213.117
 21
17.70476
  0
LINE
  8
CYAN
 10
-213.117
 20
17.70476
 11
-216.21963
 21
15.20623
  0
ARC
  8
CYAN
 10
-210.5043995419
 20
9.996981354
 40
7.7330544189
 50
137.6518352461
 51
184.9622278701
  0
ARC
  8
CYAN
 10
-211.2629276696
 20
9.7864740301
 40
6.960652509
 50
183.7759483635
 51
218.8717801295
  0
ARC
  8
CYAN
 10
-219.6050806461
 20
2.7668225803
 40
3.9462374593
 50
345.9044925588
 51
42.2101623135
  0
LINE
  8
CYAN
 10
-215.77766
 20
1.80576
 11
-216.35813
 21
1.08979
  0
LINE
  8
CYAN
 10
-216.35813
 20
1.08979
 11
-219.61995
 21
-1.2939
  0
LINE
  8
CYAN
 10
-219.61995
 20
-1.2939
 11
-220.68347
 21
-2.49619
  0
ARC
  8
CYAN
 10
-218.8111374386
 20
-3.3508208885
 40
2.0581601435
 50
155.4655542667
 51
231.0096562127
  0
ARC
  8
CYAN
 10
-222.9718699124
 20
-8.9514401406
 40
4.9213678819
 50
9.4387438356
 51
54.3868457587
  0
LINE
  8
CYAN
 10
-218.11713
 20
-8.14437
 11
-218.48548
 21
-10.38668
  0
LINE
  8
CYAN
 10
-218.48548
 20
-10.38668
 11
-220.01463
 21
-14.8535
  0
ARC
  8
CYAN
 10
-174.8849286933
 20
-17.1282861928
 40
45.1869958312
 50
177.1144184351
 51
192.1124891717
  0
LINE
  8
CYAN
 10
-219.06595
 20
-26.60995
 11
-217.95513
 21
-28.36881
  0
ARC
  8
CYAN
 10
-225.8200156104
 20
-37.0675624153
 40
11.7270933844
 50
25.0980910231
 51
47.8820206716
  0
LINE
  8
CYAN
 10
-215.20016
 20
-32.09329
 11
-215.0146
 21
-33.52813
  0
LINE
  8
CYAN
 10
-215.0146
 20
-33.52813
 11
-215.93979
 21
-36.78982
  0
ARC
  8
CYAN
 10
-212.4092396765
 20
-37.515400748
 40
3.6043380819
 50
168.3865640526
 51
238.3880924189
  0
LINE
  8
CYAN
 10
-214.2985
 20
-40.58492
 11
-210.57132
 21
-42.5531
  0
ARC
  8
CYAN
 10
-212.9480987637
 20
-45.1359746184
 40
3.5100311375
 50
342.5915683342
 51
47.3795277491
  0
ARC
  8
CYAN
 10
-222.2436262229
 20
-43.0184528425
 40
13.0355157355
 50
318.4214703531
 51
345.9362077163
  0
ARC
  8
CYAN
 10
-197.7203868768
 20
-59.5815086525
 40
16.7575354918
 50
151.8259807058
 51
177.3968622365
  0
ARC
  8
CYAN
 10
-189.4939898132
 20
-62.311230697
 40
25.2094998272
 50
172.0405609657
 51
217.9637586585
  0
ARC
  8
CYAN
 10
-211.7667499894
 20
-80.0855889707
 40
3.2992495177
 50
315.4316274547
 51
43.3889066535
  0
LINE
  8
CYAN
 10
-209.41632
 20
-82.40087
 11
-211.72915
 21
-84.876
  0
ARC
  8
CYAN
 10
-210.1354632394
 20
-86.258262976
 40
2.1096180758
 50
139.0637015952
 51
192.9020769887
  0
LINE
  8
CYAN
 10
-212.19182
 20
-86.72931
 11
-210.24716
 21
-89.45755
  0
ARC
  8
CYAN
 10
-213.836730207
 20
-91.6256184289
 40
4.1935110568
 50
343.8769681351
 51
31.1316022214
  0
ARC
  8
CYAN
 10
-213.0064688856
 20
-91.854858636
 40
3.3322617498
 50
297.800515556
 51
343.699168319
  0
ARC
  8
CYAN
 10
-210.5933107775
 20
-99.6624105467
 40
4.9352433948
 50
100.0237337045
 51
150.2012965398
  0
LINE
  8
CYAN
 10
-214.876
 20
-97.20982
 11
-216.196
 21
-102.25413
  0
LINE
  8
CYAN
 10
-216.196
 20
-102.25413
 11
-217.00632
 21
-103.01716
  0
LINE
  8
CYAN
 10
-217.00632
 20
-103.01716
 11
-217.51313
 21
-103.20281
  0
ARC
  8
CYAN
 10
-219.522301166
 20
-75.5604106217
 40
27.7153208923
 50
257.7918266617
 51
274.1571986865
  0
LINE
  8
CYAN
 10
-225.3831
 20
-102.64897
 11
-230.51876
 21
-102.67247
  0
ARC
  8
CYAN
 10
-230.111966334
 20
-96.6118018016
 40
6.0743049065
 50
221.4967506361
 51
266.1600515752
  0
ARC
  8
CYAN
 10
-232.9703394475
 20
-100.0855483026
 40
1.7787193087
 50
125.8971655349
 51
198.0439410998
  0
ARC
  8
CYAN
 10
-224.9481168071
 20
-110.2128185029
 40
14.696908255
 50
102.1594076258
 51
128.0832748919
  0
ARC
  8
CYAN
 10
-229.4370271567
 20
-92.0563861126
 40
4.0372716788
 50
290.1879713291
 51
357.4478576716
  0
LINE
  8
CYAN
 10
-225.40376
 20
-92.23616
 11
-224.31648
 21
-90.75416
  0
ARC
  8
CYAN
 10
-232.2135500428
 20
-78.8254000412
 40
14.3059088986
 50
303.5053304496
 51
324.3253822119
  0
LINE
  8
CYAN
 10
-220.59226
 20
-87.16834
 11
-220.82197
 21
-85.70984
  0
ARC
  8
CYAN
 10
-202.2203577591
 20
-66.0942084406
 40
27.033182932
 50
212.4386603463
 51
226.5198741023
  0
ARC
  8
CYAN
 10
-221.03407
 20
-78.95212
 40
4.32540678
 50
157.6815618495
 51
202.3184381505
  0
ARC
  8
CYAN
 10
-239.2509790491
 20
-70.5371059287
 40
15.7463327142
 50
334.5263902029
 51
359.179727157
  0
ARC
  8
CYAN
 10
-253.5305885466
 20
-68.3721782653
 40
30.1193307709
 50
355.4480647224
 51
24.4981923845
  0
ARC
  8
CYAN
 10
-250.1158611727
 20
-66.2755222627
 40
26.1472356372
 50
23.4201599287
 51
40.9932127382
  0
ARC
  8
CYAN
 10
-227.0234893377
 20
-46.3330020771
 40
4.365326061
 50
175.6309544438
 51
219.7392148509
  0
LINE
  8
CYAN
 10
-231.37613
 20
-46.00045
 11
-230.61311
 21
-44.4506
  0
LINE
  8
CYAN
 10
-230.61311
 20
-44.4506
 11
-228.50642
 21
-42.06695
  0
LINE
  8
CYAN
 10
-228.50642
 20
-42.06695
 11
-228.22929
 21
-40.86479
  0
ARC
  8
CYAN
 10
-231.1718344717
 20
-41.2497143124
 40
2.9676143103
 50
7.4527384687
 51
68.8982866437
  0
ARC
  8
CYAN
 10
-229.107056491
 20
-33.8699864053
 40
4.7175320694
 50
224.2375342972
 51
257.8070577678
  0
ARC
  8
CYAN
 10
-226.6863501784
 20
-34.8208780133
 40
6.2548858692
 50
168.2924543028
 51
201.9713571123
  0
ARC
  8
CYAN
 10
-251.6100897582
 20
-25.2298388773
 40
20.5585589657
 50
336.1222694794
 51
359.5699099303
  0
ARC
  8
CYAN
 10
-255.9705415087
 20
-25.1185443481
 40
24.9198471209
 50
359.3892842147
 51
30.5024708306
  0
LINE
  8
CYAN
 10
-234.49942
 20
-12.46984
 11
-239.29026
 21
-6.61521
  0
ARC
  8
CYAN
 10
-234.973131649
 20
-2.8160863453
 40
5.7507336699
 50
187.2221501427
 51
221.3481564748
  0
ARC
  8
CYAN
 10
-233.9106492301
 20
-2.7946782834
 40
6.808404665
 50
125.4081578216
 51
186.2767692523
  0
LINE
  8
CYAN
 10
-237.85542
 20
2.75448
 11
-235.10058
 21
4.63142
  0
ARC
  8
CYAN
 10
-236.7835802604
 20
5.5892921527
 40
1.9364939807
 50
330.3538232739
 51
43.437761562
  0
ARC
  8
CYAN
 10
-231.8507935287
 20
12.1848246156
 40
6.3362198623
 50
198.6182079529
 51
236.1799192243
  0
LINE
  8
CYAN
 10
-237.85542
 20
10.16192
 11
-237.73744
 21
11.22558
  0
LINE
  8
CYAN
 10
-237.73744
 20
11.22558
 11
-235.47176
 21
17.19508
  0
ARC
  8
CYAN
 10
-238.499388177
 20
17.4553153154
 40
3.0387916673
 50
355.0873003722
 51
47.4403779678
  0
LINE
  8
CYAN
 10
-236.44408
 20
19.69361
 11
-239.42876
 21
23.07337
  0
ARC
  8
CYAN
 10
-236.5559202209
 20
24.4235882912
 40
3.1743184828
 50
157.8790352954
 51
205.1732565419
  0
ARC
  8
CYAN
 10
-212.2003495382
 20
13.8838635364
 40
29.7118788976
 50
143.0917682992
 51
156.7364098374
  0
ARC
  8
CYAN
 10
-248.7063300748
 20
39.0228897643
 40
14.6885524132
 50
330.2172072342
 51
354.5540198695
  0
ARC
  8
CYAN
 10
-228.5886572713
 20
37.4140266448
 40
5.4996196
 50
137.5876298923
 51
177.7614760133
  0
ARC
  8
CYAN
 10
-229.8196537735
 20
37.8061700465
 40
4.3599392475
 50
48.1237531554
 51
130.4632370545
  0
LINE
  8
CYAN
 10
-226.90929
 20
41.05253
 11
-225.69901
 21
40.78605
  0
ARC
  8
CYAN
 10
-16.2876361974
 20
-43.1900595858
 40
9.1103887437
 50
78.5799120173
 51
113.8536888902
  0
LINE
  8
CYAN
 10
-19.9719
 20
-34.85787
 11
-22.17003
 21
-36.57271
  0
ARC
  8
CYAN
 10
-16.8361974138
 20
-40.9434109812
 40
6.8958536183
 50
140.6677901624
 51
187.3310790165
  0
ARC
  8
CYAN
 10
-71.0655508211
 20
-60.6373816407
 40
50.9879203273
 50
349.5671032758
 51
21.6533522339
  0
ARC
  8
CYAN
 10
-12.01004017
 20
-72.566279725
 40
9.309409763
 50
163.1672459522
 51
260.2658245603
  0
ARC
  8
CYAN
 10
-11.745362874
 20
-72.254781763
 40
9.6634170473
 50
259.0312847733
 51
344.0219601709
  0
ARC
  8
CYAN
 10
7.4173027847
 20
-83.3824680074
 40
13.0064890023
 50
111.7906590016
 51
139.3805011969
  0
LINE
  8
CYAN
 10
2.58908
 20
-71.30534
 11
6.22205
 21
-70.44797
  0
LINE
  8
CYAN
 10
6.22205
 20
-70.44797
 11
18.47215
 21
-70.44163
  0
LINE
  8
CYAN
 10
18.47215
 20
-70.44163
 11
18.39281
 21
-55.12937
  0
LINE
  8
CYAN
 10
18.39281
 20
-55.12937
 11
21.39842
 21
-55.12937
  0
LINE
  8
CYAN
 10
21.39842
 20
-55.12937
 11
21.34674
 21
-70.39342
  0
LINE
  8
CYAN
 10
21.34674
 20
-70.39342
 11
24.9675
 21
-70.333
  0
LINE
  8
CYAN
 10
24.9675
 20
-70.333
 11
33.4355
 21
-70.38016
  0
ARC
  8
CYAN
 10
33.2138905642
 20
-80.3184604199
 40
9.9407708945
 50
17.9713568215
 51
88.7226003447
  0
ARC
  8
CYAN
 10
51.2230681499
 20
-72.0456793185
 40
10.0129658885
 50
211.3248721717
 51
288.2290535645
  0
ARC
  8
CYAN
 10
51.1685228356
 20
-72.08574561
 40
9.9921802153
 50
288.5979929905
 51
5.6836620745
  0
ARC
  8
CYAN
 10
113.1506399685
 20
-60.5111803803
 40
53.1046660469
 50
159.0218175622
 51
191.4973708104
  0
ARC
  8
CYAN
 10
56.5745583468
 20
-41.3849274062
 40
6.9922930239
 50
359.0648227574
 51
65.9579269611
  0
LINE
  8
CYAN
 10
59.42327
 20
-34.99924
 11
54.27757
 21
-34.79632
  0
LINE
  8
CYAN
 10
54.27757
 20
-34.79632
 11
53.30995
 21
-55.3341
  0
LINE
  8
CYAN
 10
53.30995
 20
-55.3341
 11
50.22184
 21
-55.26589
  0
LINE
  8
CYAN
 10
50.22184
 20
-55.26589
 11
51.26685
 21
-34.67749
  0
LINE
  8
CYAN
 10
51.26685
 20
-34.67749
 11
45.30679
 21
-34.4424
  0
LINE
  8
CYAN
 10
45.30679
 20
-34.4424
 11
43.43282
 21
-36.31637
  0
LINE
  8
CYAN
 10
43.43282
 20
-36.31637
 11
42.34563
 21
-39.64884
  0
ARC
  8
CYAN
 10
36.8707415475
 20
-36.849198926
 40
6.1491782955
 50
276.6060914755
 51
332.9165967505
  0
ARC
  8
CYAN
 10
36.7681203602
 20
-36.937460137
 40
6.0743432713
 50
220.6957738572
 51
277.6634663108
  0
ARC
  8
CYAN
 10
22.0370678986
 20
-46.9274483349
 40
11.7847177086
 50
30.7715771586
 51
72.4427469048
  0
ARC
  8
CYAN
 10
20.5876634368
 20
-49.3353100766
 40
14.5324295198
 50
69.8573549358
 51
107.5902979508
  0
ARC
  8
CYAN
 10
21.7620132448
 20
-51.647387541
 40
17.0964742006
 50
109.0003746165
 51
145.3120044769
  0
ARC
  8
CYAN
 10
3.9832322518
 20
-37.319730996
 40
5.9149494105
 50
183.2981632498
 51
308.9822962841
  0
ARC
  8
CYAN
 10
-8.5594761523
 20
-41.265844608
 40
7.5537441486
 50
28.5127696232
 51
69.0240768942
  0
LINE
  8
CYAN
 10
-5.85542
 20
-34.21268
 11
-11.59389
 21
-34.2442
  0
LINE
  8
CYAN
 10
-11.59389
 20
-34.2442
 11
-9.91558
 21
-55.45026
  0
LINE
  8
CYAN
 10
-9.91558
 20
-55.45026
 11
-12.8796
 21
-55.52821
  0
LINE
  8
CYAN
 10
-12.8796
 20
-55.52821
 11
-14.48377
 21
-34.26004
  0
LINE
  8
CYAN
 10
93.19857
 20
-82.79248
 11
86.07555
 21
-82.56963
  0
LINE
  8
CYAN
 10
86.07555
 20
-82.56963
 11
86.16013
 21
-79.60524
  0
LINE
  8
CYAN
 10
86.16013
 20
-79.60524
 11
93.04654
 21
-79.78047
  0
ARC
  8
CYAN
 10
110.5735321749
 20
-80.8065943884
 40
17.5570039004
 50
140.981840922
 51
176.6494215218
  0
ARC
  8
CYAN
 10
115.1755458663
 20
-85.3663165659
 40
24.011846109
 50
101.2472923885
 51
139.441670859
  0
ARC
  8
CYAN
 10
119.9808586593
 20
-96.7469606458
 40
36.1971391602
 50
78.2694125026
 51
105.1970155184
  0
ARC
  8
CYAN
 10
120.3462541067
 20
-95.4322347436
 40
34.8357009924
 50
64.4100377582
 51
78.4182076294
  0
LINE
  8
CYAN
 10
135.39276
 20
-64.01363
 11
143.56026
 21
-68.64247
  0
ARC
  8
CYAN
 10
143.6112196684
 20
-66.103310735
 40
2.5396705812
 50
268.8502564436
 51
42.5791240911
  0
ARC
  8
CYAN
 10
117.871385273
 20
-90.5769074207
 40
38.0568715551
 50
43.4903200206
 51
79.2708349644
  0
ARC
  8
CYAN
 10
117.8419170361
 20
-90.4029313908
 40
37.891472605
 50
79.1780801052
 51
151.098738782
  0
ARC
  8
CYAN
 10
82.0758281452
 20
-67.5314681671
 40
5.2447641089
 50
265.7235269482
 51
299.6407569804
  0
ARC
  8
CYAN
 10
86.2531700917
 20
-53.6104359448
 40
19.6885468893
 50
238.9011234798
 51
256.5830653576
  0
ARC
  8
CYAN
 10
71.7424550386
 20
-81.7118492978
 40
12.0516237165
 50
68.8861952437
 51
95.0024187409
  0
ARC
  8
CYAN
 10
71.9897471791
 20
-72.3123551529
 40
2.9116400143
 50
116.4780086876
 51
186.1271553617
  0
LINE
  8
CYAN
 10
69.09474
 20
-72.62313
 11
68.97973
 21
-89.26177
  0
ARC
  8
CYAN
 10
72.4252658405
 20
-89.3433553538
 40
3.4465016173
 50
178.6435714715
 51
265.0283114279
  0
ARC
  8
CYAN
 10
72.5450451789
 20
-89.4747713137
 40
3.3285283421
 50
262.7776181974
 51
307.7084794242
  0
ARC
  8
CYAN
 10
98.9636239247
 20
-136.1369826065
 40
50.3295193242
 50
107.4642004059
 51
118.9771837134
  0
ARC
  8
CYAN
 10
118.1222574013
 20
-70.9892448874
 40
38.3101997859
 50
206.5739687231
 51
266.5496312103
  0
ARC
  8
CYAN
 10
118.2492504442
 20
-73.1633498055
 40
36.1485967146
 50
266.1413157353
 51
321.1629719701
  0
ARC
  8
CYAN
 10
144.0627805535
 20
-95.0840606764
 40
2.4603673686
 50
342.2925124068
 51
96.2932954963
  0
ARC
  8
CYAN
 10
145.2140201779
 20
-99.0529637509
 40
6.5699436544
 50
102.4905682923
 51
140.6085761686
  0
ARC
  8
CYAN
 10
120.2085103288
 20
-66.3977248986
 40
34.7645207313
 50
287.5939576649
 51
304.9757789593
  0
ARC
  8
CYAN
 10
119.9901682364
 20
-66.1369195886
 40
35.0793626382
 50
225.9318994661
 51
287.8051383316
  0
LINE
  8
CYAN
 10
95.59202
 20
-91.34192
 11
93.2085
 21
-82.98876
  0
LINE
  8
CYAN
 10
93.2085
 20
-82.98876
 11
93.19857
 21
-82.79248
  0
LINE
  8
CYAN
 10
164.92707
 20
-61.92965
 11
171.91234
 21
-61.90721
  0
LINE
  8
CYAN
 10
171.91234
 20
-61.90721
 11
171.8935
 21
-58.84316
  0
LINE
  8
CYAN
 10
171.8935
 20
-58.84316
 11
164.91387
 21
-58.9415
  0
ARC
  8
CYAN
 10
147.318581458
 20
-58.6300139514
 40
17.5980454151
 50
358.9858096424
 51
41.5222447951
  0
ARC
  8
CYAN
 10
144.0621302195
 20
-63.1317300959
 40
23.0522483836
 50
44.535260792
 51
88.2649983525
  0
ARC
  8
CYAN
 10
142.0509089919
 20
-71.6402701984
 40
31.6663228386
 50
85.0921346091
 51
117.17566903
  0
LINE
  8
CYAN
 10
127.58826
 20
-43.46958
 11
124.09376
 21
-45.62055
  0
LINE
  8
CYAN
 10
124.09376
 20
-45.62055
 11
122.03426
 21
-46.20092
  0
ARC
  8
CYAN
 10
122.2054368591
 20
-43.9082875442
 40
2.2990139396
 50
198.228076271
 51
265.7299970755
  0
ARC
  8
CYAN
 10
122.2179599873
 20
-43.8522401028
 40
2.3289625343
 50
146.5330495814
 51
199.4414517728
  0
ARC
  8
CYAN
 10
141.4482563942
 20
-61.9580510231
 40
28.7102501277
 50
120.5102912677
 51
137.5168686715
  0
ARC
  8
CYAN
 10
143.6067150197
 20
-64.8869487952
 40
32.3315886019
 50
85.8217707955
 51
121.1706243159
  0
ARC
  8
CYAN
 10
143.6432773098
 20
-65.0359429093
 40
32.4775572976
 50
50.6895371804
 51
85.9052523867
  0
ARC
  8
CYAN
 10
144.201122689
 20
-64.5974107614
 40
31.785218893
 50
32.9954001268
 51
50.9667747706
  0
ARC
  8
CYAN
 10
180.3553054031
 20
-43.7564142968
 40
10.1309686536
 50
200.4017692734
 51
237.3370389452
  0
LINE
  8
CYAN
 10
174.88766
 20
-52.28527
 11
176.5995
 21
-52.17052
  0
LINE
  8
CYAN
 10
176.5995
 20
-52.17052
 11
184.99981
 21
-49.5334
  0
LINE
  8
CYAN
 10
184.99981
 20
-49.5334
 11
187.35997
 21
-49.04724
  0
ARC
  8
CYAN
 10
187.028472701
 20
-52.6752930785
 40
3.6431661504
 50
357.7459567941
 51
84.7793477756
  0
LINE
  8
CYAN
 10
190.66882
 20
-52.81858
 11
190.43897
 21
-67.97518
  0
ARC
  8
CYAN
 10
186.0050379111
 20
-67.8956316191
 40
4.4346456131
 50
256.5867434197
 51
358.9721769562
  0
LINE
  8
CYAN
 10
184.97632
 20
-72.20931
 11
176.9
 21
-69.38653
  0
ARC
  8
CYAN
 10
174.9140411216
 20
-77.0437805811
 40
7.9105953712
 50
75.4603162728
 51
112.0285152207
  0
ARC
  8
CYAN
 10
144.1018956143
 20
-53.7633123358
 40
32.0884721415
 50
265.8789980707
 51
330.1995214706
  0
ARC
  8
CYAN
 10
144.1534886285
 20
-53.3712594906
 40
32.483227315
 50
233.4064141548
 51
265.837925756
  0
ARC
  8
CYAN
 10
145.3632413749
 20
-51.9187700423
 40
34.3707457615
 50
219.2553516107
 51
233.2306935326
  0
ARC
  8
CYAN
 10
120.5876300202
 20
-72.2272203924
 40
2.3359196708
 50
147.830888037
 51
218.0764202207
  0
ARC
  8
CYAN
 10
120.5395738493
 20
-72.1029577467
 40
2.2305019379
 50
90.8123614579
 51
149.8760340443
  0
LINE
  8
CYAN
 10
120.50795
 20
-69.87268
 11
121.68648
 21
-70.08187
  0
LINE
  8
CYAN
 10
121.68648
 20
-70.08187
 11
126.38611
 21
-73.39071
  0
ARC
  8
CYAN
 10
142.6060520046
 20
-47.0475232252
 40
30.9362248519
 50
238.3786959493
 51
271.5450988634
  0
ARC
  8
CYAN
 10
143.5681801697
 20
-52.0462468346
 40
25.9265689894
 50
269.7171943421
 51
304.8611281011
  0
ARC
  8
CYAN
 10
147.3635562291
 20
-59.418396568
 40
17.7421365618
 50
308.4143621654
 51
351.8629282769
  0
LINE
  8
CYAN
 10
-181.83858
 20
4.75355
 11
-178.97926
 21
17.52782
  0
ARC
  8
CYAN
 10
-176.7431416385
 20
13.0924007481
 40
4.9672094044
 50
14.1668785713
 51
116.7549752044
  0
ARC
  8
CYAN
 10
-147.2189516783
 20
11.5657397569
 40
24.8597716485
 50
173.6666079922
 51
205.8538067583
  0
ARC
  8
CYAN
 10
-173.847669766
 20
-0.4902695752
 40
4.427225536
 50
286.3843577546
 51
15.9318988717
  0
ARC
  8
CYAN
 10
-172.1173281091
 20
-9.1738278907
 40
4.4621738695
 50
96.19483352
 51
180.0539564723
  0
ARC
  8
CYAN
 10
-172.2583516462
 20
-9.2135651818
 40
4.321294464
 50
179.5288358831
 51
218.1991571303
  0
ARC
  8
CYAN
 10
-177.4561180451
 20
-14.5682432404
 40
3.2313773187
 50
6.0938289122
 51
56.1101860545
  0
ARC
  8
CYAN
 10
-176.4920492751
 20
-14.2510985313
 40
2.24919827
 50
306.8030679284
 51
0.6594955875
  0
LINE
  8
CYAN
 10
-175.14463
 20
-16.05203
 11
-177.69031
 21
-17.21003
  0
ARC
  8
CYAN
 10
-176.2211806857
 20
-18.5334641492
 40
1.977326197
 50
137.9865592729
 51
203.2449062366
  0
LINE
  8
CYAN
 10
-178.038
 20
-19.31384
 11
-177.38982
 21
-20.56316
  0
ARC
  8
CYAN
 10
-182.9734003099
 20
-27.3753896073
 40
8.8081122439
 50
25.9048480958
 51
50.6605607023
  0
ARC
  8
CYAN
 10
-181.6045902079
 20
-26.5087477756
 40
7.2005117553
 50
346.2202436282
 51
24.4599932127
  0
ARC
  8
CYAN
 10
-140.0239110468
 20
-45.5686757028
 40
38.6927923993
 50
153.3672277452
 51
166.1763794039
  0
ARC
  8
CYAN
 10
-154.6846378112
 20
-40.9230022559
 40
23.3684502382
 50
168.6490277498
 51
211.6024157415
  0
ARC
  8
CYAN
 10
-177.8827608692
 20
-57.8540408646
 40
5.7281090468
 50
295.9694344911
 51
54.88278319
  0
ARC
  8
CYAN
 10
-174.1222994411
 20
-64.4649348115
 40
1.924300838
 50
130.5954977677
 51
242.657074755
  0
ARC
  8
CYAN
 10
-176.174178776
 20
-71.1920114868
 40
5.1519218312
 50
2.0330729059
 51
76.8962438086
  0
ARC
  8
CYAN
 10
-141.4037199931
 20
-80.5687801609
 40
31.126108958
 50
162.1140729905
 51
202.7877552096
  0
LINE
  8
CYAN
 10
-170.10031
 20
-92.6245
 11
-167.6695
 21
-96.90565
  0
LINE
  8
CYAN
 10
-167.6695
 20
-96.90565
 11
-166.30531
 21
-99.40418
  0
ARC
  8
CYAN
 10
-173.7115690422
 20
-101.6846863741
 40
7.7494117404
 50
334.8439976091
 51
17.1144414442
  0
ARC
  8
CYAN
 10
-164.6853099846
 20
-107.2464470601
 40
3.0314323782
 50
131.5798488374
 51
227.8195283318
  0
LINE
  8
CYAN
 10
-166.72082
 20
-109.49284
 11
-164.56984
 21
-110.76579
  0
ARC
  8
CYAN
 10
-166.8495906627
 20
-113.1098481705
 40
3.2698427777
 50
354.0269530882
 51
45.7968130572
  0
ARC
  8
CYAN
 10
-151.2263495199
 20
-116.5392450179
 40
12.7510046412
 50
165.9796792108
 51
204.9506661811
  0
ARC
  8
CYAN
 10
-154.0051313218
 20
-117.0914684964
 40
10.0211381415
 50
208.7928975388
 51
233.8448529307
  0
LINE
  8
CYAN
 10
-159.91734
 20
-125.18276
 11
-155.38271
 21
-127.21876
  0
ARC
  8
CYAN
 10
-157.7046604716
 20
-129.4757209198
 40
3.2381054007
 50
261.5229517794
 51
44.1868423076
  0
LINE
  8
CYAN
 10
-158.182
 20
-132.67845
 11
-169.567
 21
-130.29492
  0
ARC
  8
CYAN
 10
-168.4284702096
 20
-125.04427974
 40
5.3726597904
 50
179.9997894861
 51
257.7655901839
  0
ARC
  8
CYAN
 10
-178.4963191864
 20
-121.8969621077
 40
5.6524583607
 50
326.165105214
 51
76.048094467
  0
ARC
  8
CYAN
 10
-174.9993201948
 20
-113.6141192223
 40
3.5183223163
 50
155.4714568967
 51
232.6572566847
  0
ARC
  8
CYAN
 10
-181.9431900414
 20
-108.5219501532
 40
5.2152327621
 50
315.866293507
 51
13.8749326973
  0
ARC
  8
CYAN
 10
-181.834059703
 20
-111.7939868097
 40
6.7079009067
 50
42.3943697001
 51
70.6500182821
  0
ARC
  8
CYAN
 10
-176.4936395162
 20
-101.5657615046
 40
4.9924933777
 50
164.2965360438
 51
231.354084952
  0
ARC
  8
CYAN
 10
-206.3627210818
 20
-94.2641431143
 40
25.7596052275
 50
346.6443027954
 51
31.2123833168
  0
ARC
  8
CYAN
 10
-206.2808751713
 20
-94.2642341526
 40
25.6896886441
 50
31.3071520016
 51
51.670082729
  0
ARC
  8
CYAN
 10
-188.1260802765
 20
-70.3727995156
 40
4.3496656765
 50
180.1551781014
 51
239.2747392686
  0
ARC
  8
CYAN
 10
-188.1353502408
 20
-70.2552404541
 40
4.3423064346
 50
122.4164982586
 51
181.7068593468
  0
ARC
  8
CYAN
 10
-191.7663916029
 20
-62.176371453
 40
4.6016193329
 50
286.4523615956
 51
337.9294582488
  0
ARC
  8
CYAN
 10
-191.4816586677
 20
-63.3743936201
 40
4.014960885
 50
352.3996811602
 51
48.0093039875
  0
ARC
  8
CYAN
 10
-182.7583411456
 20
-56.9532423566
 40
6.947064524
 50
167.3955447325
 51
209.6528627831
  0
ARC
  8
CYAN
 10
-206.235930096
 20
-48.3620238731
 40
18.1350628248
 50
337.0367111638
 51
24.759230822
  0
ARC
  8
CYAN
 10
-206.1605663925
 20
-48.3236548401
 40
18.0505579911
 50
24.7488220002
 51
48.6475958199
  0
LINE
  8
CYAN
 10
-194.23477
 20
-34.77382
 11
-197.63779
 21
-32.06613
  0
ARC
  8
CYAN
 10
-194.1137501469
 20
-29.8839087724
 40
4.1449905153
 50
161.8835964548
 51
211.7673869683
  0
ARC
  8
CYAN
 10
-192.1640041088
 20
-31.0963741446
 40
6.3984418011
 50
112.6635911564
 51
156.9876083381
  0
ARC
  8
CYAN
 10
-196.4955586816
 20
-23.6126939112
 40
2.4447022996
 50
319.758434429
 51
15.8058400356
  0
ARC
  8
CYAN
 10
-197.4645756484
 20
-24.2783840368
 40
3.5782716183
 50
21.8468988878
 51
72.4503203496
  0
ARC
  8
CYAN
 10
-193.3973194122
 20
-17.3896529263
 40
4.5846983355
 50
153.390878808
 51
229.3228081171
  0
ARC
  8
CYAN
 10
-202.9065818179
 20
-7.7366951042
 40
9.3285431659
 50
305.4475779348
 51
15.3451769376
  0
LINE
  8
CYAN
 10
-193.91061
 20
-5.26805
 11
-194.88292
 21
-3.04639
  0
LINE
  8
CYAN
 10
-194.88292
 20
-3.04639
 11
-197.49642
 21
0.70145
  0
ARC
  8
CYAN
 10
-189.8186798943
 20
4.4416593073
 40
8.5403078863
 50
171.3769784897
 51
205.9730177619
  0
ARC
  8
CYAN
 10
-200.458438942
 20
7.1866489613
 40
2.6395422371
 50
326.3004263281
 51
124.7568830596
  0
ARC
  8
CYAN
 10
-204.7360243398
 20
11.1646916941
 40
3.3109672128
 50
246.452994823
 51
326.8726042713
  0
ARC
  8
CYAN
 10
-203.1073207404
 20
12.6296320426
 40
5.3817192542
 50
163.1097873601
 51
236.7413551657
  0
ARC
  8
CYAN
 10
-199.2250380673
 20
13.1128212678
 40
9.0962427608
 50
73.347033707
 51
173.1785745211
  0
ARC
  8
CYAN
 10
-184.0338091994
 20
38.9688497744
 40
21.2648375253
 50
233.7153213119
 51
274.8157190321
  0
LINE
  8
CYAN
 10
-182.2486
 20
17.77908
 11
-184.99216
 21
5.31171
  0
LINE
  8
CYAN
 10
-184.99216
 20
5.31171
 11
-181.83858
 21
4.75355
  0
LINE
  8
CYAN
 10
77.14707
 20
-13.65989
 11
74.99653
 21
-5.75602
  0
LINE
  8
CYAN
 10
74.99653
 20
-5.75602
 11
77.77846
 21
-4.69016
  0
LINE
  8
CYAN
 10
77.77846
 20
-4.69016
 11
80.01474
 21
-12.63263
  0
LINE
  8
CYAN
 10
80.01474
 20
-12.63263
 11
81.5296
 21
-11.98355
  0
ARC
  8
CYAN
 10
89.600141764
 20
-42.9587123994
 40
32.0092850597
 50
90.3876607269
 51
104.6036658095
  0
LINE
  8
CYAN
 10
89.38357
 20
-10.95016
 11
87.70186
 21
-4.25551
  0
LINE
  8
CYAN
 10
87.70186
 20
-4.25551
 11
90.43919
 21
-3.06808
  0
LINE
  8
CYAN
 10
90.43919
 20
-3.06808
 11
92.4067
 21
-10.69035
  0
LINE
  8
CYAN
 10
92.4067
 20
-10.69035
 11
93.1916
 21
-10.6429
  0
LINE
  8
CYAN
 10
93.1916
 20
-10.6429
 11
102.32392
 21
-10.18588
  0
LINE
  8
CYAN
 10
102.32392
 20
-10.18588
 11
100.87074
 21
-4.14493
  0
LINE
  8
CYAN
 10
100.87074
 20
-4.14493
 11
103.69049
 21
-3.16044
  0
LINE
  8
CYAN
 10
103.69049
 20
-3.16044
 11
105.4349
 21
-10.03022
  0
LINE
  8
CYAN
 10
105.4349
 20
-10.03022
 11
115.78901
 21
-9.51215
  0
LINE
  8
CYAN
 10
115.78901
 20
-9.51215
 11
114.37549
 21
-3.03428
  0
LINE
  8
CYAN
 10
114.37549
 20
-3.03428
 11
117.34359
 21
-2.03513
  0
LINE
  8
CYAN
 10
117.34359
 20
-2.03513
 11
118.95708
 21
-9.35365
  0
LINE
  8
CYAN
 10
118.95708
 20
-9.35365
 11
119.57134
 21
-9.3229
  0
LINE
  8
CYAN
 10
119.57134
 20
-9.3229
 11
129.17012
 21
-7.55697
  0
LINE
  8
CYAN
 10
129.17012
 20
-7.55697
 11
127.0965
 21
-0.22569
  0
LINE
  8
CYAN
 10
127.0965
 20
-0.22569
 11
130.14824
 21
0.65947
  0
LINE
  8
CYAN
 10
130.14824
 20
0.65947
 11
132.0795
 21
-6.53664
  0
LINE
  8
CYAN
 10
132.0795
 20
-6.53664
 11
140.26119
 21
-3.79252
  0
LINE
  8
CYAN
 10
140.26119
 20
-3.79252
 11
141.31072
 21
-3.2275
  0
LINE
  8
CYAN
 10
141.31072
 20
-3.2275
 11
138.84219
 21
4.37653
  0
LINE
  8
CYAN
 10
138.84219
 20
4.37653
 11
141.78463
 21
5.1549
  0
LINE
  8
CYAN
 10
141.78463
 20
5.1549
 11
144.27616
 21
-1.63112
  0
LINE
  8
CYAN
 10
144.27616
 20
-1.63112
 11
155.2224
 21
4.26175
  0
LINE
  8
CYAN
 10
155.2224
 20
4.26175
 11
152.7572
 21
11.80489
  0
LINE
  8
CYAN
 10
152.7572
 20
11.80489
 11
155.7299
 21
12.5428
  0
LINE
  8
CYAN
 10
155.7299
 20
12.5428
 11
158.06617
 21
5.79269
  0
ARC
  8
CYAN
 10
156.087456736
 20
11.3370347812
 40
5.8868552924
 50
289.6409014284
 51
321.0931571524
  0
ARC
  8
CYAN
 10
162.6697169665
 20
4.3175107355
 40
3.8784700235
 50
70.9897393151
 51
121.0644307965
  0
ARC
  8
CYAN
 10
162.5729398947
 20
4.463890338
 40
3.774164999
 50
325.7352751777
 51
68.8763588873
  0
ARC
  8
CYAN
 10
193.0986687593
 20
0.7724026681
 40
27.4513249339
 50
176.7285190615
 51
233.1493181464
  0
ARC
  8
CYAN
 10
184.6444254261
 20
-9.6412192181
 40
14.0576653118
 50
235.2680457203
 51
321.1324822694
  0
LINE
  8
CYAN
 10
195.58971
 20
-18.46271
 11
197.60218
 21
-15.08618
  0
ARC
  8
CYAN
 10
207.9965803264
 20
-16.9855493497
 40
10.5665113483
 50
137.046795818
 51
169.6445870288
  0
ARC
  8
CYAN
 10
216.1897582524
 20
-22.4958215693
 40
20.3769107325
 50
122.4375176928
 51
141.4087684526
  0
LINE
  8
CYAN
 10
205.26
 20
-5.29818
 11
208.24765
 21
-3.74537
  0
LINE
  8
CYAN
 10
208.24765
 20
-3.74537
 11
210.35147
 21
-1.64168
  0
ARC
  8
CYAN
 10
196.2232602466
 20
10.2870540475
 40
18.4905653459
 50
319.8249190513
 51
33.2028603002
  0
ARC
  8
CYAN
 10
206.8041296429
 20
22.2727522638
 40
5.2326717555
 50
339.1764070821
 51
38.7533087878
  0
LINE
  8
CYAN
 10
210.88482
 20
25.54824
 11
199.152
 21
39.66471
  0
LINE
  8
CYAN
 10
199.152
 20
39.66471
 11
198.78494
 21
40.04042
  0
LINE
  8
CYAN
 10
198.78494
 20
40.04042
 11
185.21821
 21
29.27737
  0
LINE
  8
CYAN
 10
185.21821
 20
29.27737
 11
183.26992
 21
31.70548
  0
LINE
  8
CYAN
 10
183.26992
 20
31.70548
 11
196.62208
 21
42.25442
  0
LINE
  8
CYAN
 10
196.62208
 20
42.25442
 11
196.28218
 21
42.60234
  0
ARC
  8
CYAN
 10
187.6536451943
 20
39.4807835746
 40
9.1758229827
 50
19.888670805
 51
86.8259126105
  0
ARC
  8
CYAN
 10
184.2850527793
 20
53.3205992519
 40
6.0755907641
 50
242.1811453564
 51
309.6481158532
  0
ARC
  8
CYAN
 10
176.1737308077
 20
36.1616000152
 40
12.9126237464
 50
65.8836586058
 51
116.265849413
  0
ARC
  8
CYAN
 10
176.4231705458
 20
34.8536606191
 40
14.2003463652
 50
114.8328316699
 51
162.3677749962
  0
ARC
  8
CYAN
 10
176.3115879655
 20
34.7887142318
 40
14.1140029427
 50
161.9793012648
 51
183.3169782727
  0
LINE
  8
CYAN
 10
162.22123
 20
33.97208
 11
162.54526
 21
29.18124
  0
ARC
  8
CYAN
 10
158.1377786021
 20
30.3972401191
 40
4.5721492279
 50
185.6840741957
 51
344.5761090098
  0
LINE
  8
CYAN
 10
153.58811
 20
29.9444
 11
153.98295
 21
34.89724
  0
ARC
  8
CYAN
 10
146.4146289285
 20
34.2859524742
 40
7.5929675543
 50
4.6177123836
 51
42.2143119085
  0
ARC
  8
CYAN
 10
146.1941443222
 20
33.8784707773
 40
8.0315256875
 50
43.3105041327
 51
121.0991970528
  0
LINE
  8
CYAN
 10
142.04569
 20
40.75566
 11
145.65038
 21
26.33519
  0
LINE
  8
CYAN
 10
145.65038
 20
26.33519
 11
142.98652
 21
25.65166
  0
LINE
  8
CYAN
 10
142.98652
 20
25.65166
 11
139.30521
 21
40.00276
  0
ARC
  8
CYAN
 10
138.3568263501
 20
32.7247163431
 40
7.3395743077
 50
82.5757630893
 51
127.4194223101
  0
ARC
  8
CYAN
 10
137.8120711626
 20
33.9654630568
 40
6.031707502
 50
130.4727788688
 51
187.8814699899
  0
ARC
  8
CYAN
 10
20.3416976889
 20
2.1771417125
 40
115.7146313628
 50
7.190886527
 51
15.5194434694
  0
ARC
  8
CYAN
 10
132.1202909889
 20
16.7905408168
 40
3.0286377711
 50
261.5487769591
 51
357.5631786824
  0
LINE
  8
CYAN
 10
131.67518
 20
13.79479
 11
129.987
 21
14.62576
  0
ARC
  8
CYAN
 10
126.1038032924
 20
13.0184769978
 40
4.2026866787
 50
22.4850147901
 51
72.7938856884
  0
ARC
  8
CYAN
 10
126.7194225484
 20
14.2193258353
 40
2.8828919434
 50
77.4265939411
 51
160.9752716596
  0
LINE
  8
CYAN
 10
123.994
 20
15.15908
 11
123.43703
 21
12.38044
  0
ARC
  8
CYAN
 10
120.8184991403
 20
13.5249992206
 40
2.8577473074
 50
287.9987009073
 51
336.3898728039
  0
ARC
  8
CYAN
 10
120.7794227441
 20
13.5016384566
 40
2.8479500145
 50
192.396353598
 51
288.8916355144
  0
ARC
  8
CYAN
 10
115.4682001372
 20
10.9594099579
 40
3.1823594235
 50
37.3538219026
 51
108.4850530491
  0
LINE
  8
CYAN
 10
114.45921
 20
13.97758
 11
112.88574
 21
12.82245
  0
LINE
  8
CYAN
 10
112.88574
 20
12.82245
 11
111.77489
 21
9.71979
  0
ARC
  8
CYAN
 10
109.0018944371
 20
10.887220805
 40
3.0087205049
 50
186.363246244
 51
337.1689130678
  0
ARC
  8
CYAN
 10
103.3329307025
 20
9.0926699105
 40
3.051334589
 50
28.6094334301
 51
136.878054926
  0
LINE
  8
CYAN
 10
101.10576
 20
11.17842
 11
100.11289
 21
8.88895
  0
ARC
  8
CYAN
 10
97.368125749
 20
10.2076870584
 40
3.0451269633
 50
275.0263286475
 51
334.3377871475
  0
ARC
  8
CYAN
 10
97.2813768728
 20
10.1096541708
 40
2.9565982096
 50
227.8797623033
 51
276.8677293933
  0
LINE
  8
CYAN
 10
95.29842
 20
7.91663
 11
94.55876
 21
8.93313
  0
ARC
  8
CYAN
 10
90.7226975138
 20
8.0680033254
 40
3.9324063321
 50
12.7089923909
 51
60.8565665037
  0
ARC
  8
CYAN
 10
91.4649505055
 20
8.6847000687
 40
3.0522045924
 50
67.4026118752
 51
128.0849916705
  0
LINE
  8
CYAN
 10
89.58226
 20
11.08708
 11
87.89408
 21
8.44708
  0
ARC
  8
CYAN
 10
85.699172321
 20
10.6678797645
 40
3.1224303536
 50
213.7504503283
 51
314.6640424568
  0
ARC
  8
CYAN
 10
76.8233146439
 20
7.3588120095
 40
6.4739998548
 50
14.0740355799
 51
46.2546562547
  0
ARC
  8
CYAN
 10
79.5130045785
 20
9.6644595105
 40
2.9691190872
 50
53.0018134105
 51
114.7925896783
  0
ARC
  8
CYAN
 10
79.4795136554
 20
9.7541144082
 40
2.8736926198
 50
114.9359699054
 51
165.7307305367
  0
ARC
  8
CYAN
 10
73.2870155263
 20
10.7041792732
 40
3.4160301061
 50
302.4738092151
 51
355.9416706212
  0
ARC
  8
CYAN
 10
73.4134010166
 20
10.5679895298
 40
3.2334508174
 50
188.4787707663
 51
301.8801658049
  0
ARC
  8
CYAN
 10
67.5816989157
 20
7.8928399362
 40
3.4305633415
 50
39.8535677714
 51
146.8859892665
  0
LINE
  8
CYAN
 10
64.70831
 20
9.76698
 11
63.31766
 21
6.54958
  0
ARC
  8
CYAN
 10
61.3439136892
 20
8.5577985168
 40
2.8157798406
 50
251.9475766735
 51
314.5039979851
  0
ARC
  8
CYAN
 10
61.393748288
 20
8.5949419833
 40
2.8667623885
 50
190.3731072979
 51
251.2306292036
  0
ARC
  8
CYAN
 10
55.7003030561
 20
6.7103251394
 40
3.1827391561
 50
25.4647092835
 51
81.5226035661
  0
ARC
  8
CYAN
 10
55.6671773934
 20
6.7194591058
 40
3.1787713638
 50
80.9077712733
 51
136.9611949697
  0
ARC
  8
CYAN
 10
44.5692656941
 20
12.2302839364
 40
9.3892314236
 50
310.0873045773
 51
339.1533032918
  0
LINE
  8
CYAN
 10
50.6155
 20
5.04692
 11
50.15284
 21
4.99976
  0
LINE
  8
CYAN
 10
50.15284
 20
4.99976
 11
49.71087
 21
5.13826
  0
ARC
  8
CYAN
 10
41.7179108792
 20
0.4567652197
 40
9.2630334602
 50
30.3576054163
 51
90.0784366253
  0
ARC
  8
CYAN
 10
42.1399399512
 20
4.4344552846
 40
5.3031816672
 50
94.7018987625
 51
141.2394868267
  0
LINE
  8
CYAN
 10
38.00468
 20
7.7546
 11
37.12371
 21
6.27247
  0
LINE
  8
CYAN
 10
37.12371
 20
6.27247
 11
36.87024
 21
5.43876
  0
LINE
  8
CYAN
 10
36.87024
 20
5.43876
 11
36.47681
 21
-1.63317
  0
LINE
  8
CYAN
 10
36.47681
 20
-1.63317
 11
51.0341
 21
-5.26013
  0
LINE
  8
CYAN
 10
51.0341
 20
-5.26013
 11
51.07582
 21
-8.273
  0
LINE
  8
CYAN
 10
51.07582
 20
-8.273
 11
36.55667
 21
-4.65937
  0
LINE
  8
CYAN
 10
36.55667
 20
-4.65937
 11
36.59037
 21
-5.89921
  0
ARC
  8
CYAN
 10
30.1914914552
 20
1.4691104789
 40
9.7589852603
 50
265.4589491313
 51
310.9720640036
  0
ARC
  8
CYAN
 10
30.3217129127
 20
1.6736090609
 40
9.9737991739
 50
239.4517363173
 51
264.8062196609
  0
ARC
  8
CYAN
 10
62.5519356884
 20
45.8640268321
 40
64.6294859284
 50
225.2325760981
 51
234.7511412041
  0
ARC
  8
CYAN
 10
68.6846680425
 20
52.9703254714
 40
73.9964703374
 50
215.7895968231
 51
225.7361975999
  0
ARC
  8
CYAN
 10
0.9854451999
 20
6.2305963077
 40
8.4217164405
 50
24.3012425251
 51
50.2412316444
  0
LINE
  8
CYAN
 10
6.37161
 20
12.70474
 11
5.26076
 21
13.17023
  0
ARC
  8
CYAN
 10
4.7355603006
 20
10.4100402381
 40
2.8097121287
 50
79.2267343252
 51
177.5483367471
  0
ARC
  8
CYAN
 10
34.6658428624
 20
19.8372737261
 40
34.0346869912
 50
195.8701180965
 51
219.0792649071
  0
ARC
  8
CYAN
 10
50.2067650351
 20
28.9588753375
 40
51.9200113447
 50
216.0806270789
 51
238.3198154837
  0
ARC
  8
CYAN
 10
43.1577154507
 20
14.4549777743
 40
35.9117849709
 50
235.7368045012
 51
259.8401413345
  0
ARC
  8
CYAN
 10
35.898148469
 20
-18.3107814406
 40
2.7435122504
 50
289.701698295
 51
336.8128573554
  0
ARC
  8
CYAN
 10
40.1560284261
 20
-21.0970205819
 40
2.4339530237
 50
85.0815522281
 51
135.4986679801
  0
ARC
  8
CYAN
 10
40.0814046218
 20
-20.9292665014
 40
2.2749458368
 50
347.9712721295
 51
82.8462235362
  0
ARC
  8
CYAN
 10
45.2899478057
 20
-20.7445844552
 40
3.055414195
 50
192.4514647969
 51
288.1165139177
  0
ARC
  8
CYAN
 10
45.0679696164
 20
-20.6054703642
 40
3.2609718628
 50
291.0646158516
 51
335.9643586154
  0
ARC
  8
CYAN
 10
50.9202320925
 20
-22.5119971464
 40
2.9316494796
 50
118.8715976013
 51
168.6228250481
  0
ARC
  8
CYAN
 10
51.0075471277
 20
-22.6509423649
 40
3.0954984714
 50
24.2443724616
 51
119.045079989
  0
ARC
  8
CYAN
 10
61.1608008598
 20
-20.2307619688
 40
7.4202817818
 50
188.9084672987
 51
218.2753372469
  0
ARC
  8
CYAN
 10
56.6701734245
 20
-23.0456900942
 40
2.2259683078
 50
233.1612269143
 51
303.6885677471
  0
ARC
  8
CYAN
 10
56.0401642653
 20
-21.0071955437
 40
4.3144225294
 50
295.6074402915
 51
336.90091879
  0
LINE
  8
CYAN
 10
60.00869
 20
-22.69984
 11
60.75132
 21
-19.73568
  0
ARC
  8
CYAN
 10
64.6857645776
 20
-21.2432809506
 40
4.2133970571
 50
357.5026780324
 51
159.034160699
  0
ARC
  8
CYAN
 10
71.7424115409
 20
-19.080789945
 40
3.6892997929
 50
219.4878608086
 51
324.6042267741
  0
ARC
  8
CYAN
 10
71.6921096998
 20
-19.0889428987
 40
3.7257538366
 50
325.1545007068
 51
23.0218018795
  0
ARC
  8
CYAN
 10
77.6357184836
 20
-16.3413173509
 40
2.8264255487
 50
129.5207770386
 51
207.168082042
  0
LINE
  8
CYAN
 10
75.8371
 20
-14.16103
 11
77.14707
 21
-13.65989
  0
ENDSEC
  0
EOF
